<svg width="14" height="14" viewBox="0 0 14 14" fill="none" xmlns="http://www.w3.org/2000/svg">
<path d="M2.93347 14C2.4715 14 2.07606 13.8595 1.74713 13.5785C1.4182 13.2974 1.25373 12.9596 1.25373 12.5649V2.12841H0.679105C0.486692 2.12841 0.325448 2.07322 0.195373 1.96283C0.0651243 1.85245 0 1.71573 0 1.55268C0 1.38948 0.0651243 1.25128 0.195373 1.13807C0.325448 1.02471 0.486692 0.968026 0.679105 0.968026H4.49254V0.700246C4.49254 0.506997 4.57264 0.341941 4.73284 0.205075C4.89286 0.0683584 5.08597 0 5.31216 0H8.68784C8.91403 0 9.10714 0.0683584 9.26716 0.205075C9.42736 0.341941 9.50746 0.506997 9.50746 0.700246V0.968026H13.3209C13.5133 0.968026 13.6746 1.02322 13.8046 1.1336C13.9349 1.24399 14 1.3807 14 1.54375C14 1.70695 13.9349 1.84516 13.8046 1.95837C13.6746 2.07173 13.5133 2.12841 13.3209 2.12841H12.7463V12.5553C12.7463 12.9609 12.5818 13.303 12.2529 13.5818C11.9239 13.8606 11.5285 14 11.0665 14H2.93347ZM11.3881 2.12841H2.61194V12.5649C2.61194 12.6451 2.64206 12.7109 2.70231 12.7624C2.76256 12.8139 2.83961 12.8396 2.93347 12.8396H11.0665C11.1604 12.8396 11.2374 12.8139 11.2977 12.7624C11.3579 12.7109 11.3881 12.6451 11.3881 12.5649V2.12841ZM5.58851 11.2329C5.77935 11.2329 5.94112 11.1774 6.07381 11.0662C6.20632 10.955 6.27257 10.8171 6.27257 10.6527V4.31528C6.27257 4.15089 6.20806 4.01306 6.07903 3.90178C5.94983 3.79065 5.78971 3.73509 5.59869 3.73509C5.40785 3.73509 5.24608 3.79065 5.1134 3.90178C4.98088 4.01306 4.91463 4.15089 4.91463 4.31528V10.6527C4.91463 10.8171 4.97914 10.955 5.10817 11.0662C5.23738 11.1774 5.39749 11.2329 5.58851 11.2329ZM8.40131 11.2329C8.59215 11.2329 8.75392 11.1774 8.8866 11.0662C9.01912 10.955 9.08537 10.8171 9.08537 10.6527V4.31528C9.08537 4.15089 9.02086 4.01306 8.89183 3.90178C8.76262 3.79065 8.60251 3.73509 8.41149 3.73509C8.22065 3.73509 8.05888 3.79065 7.92619 3.90178C7.79368 4.01306 7.72743 4.15089 7.72743 4.31528V10.6527C7.72743 10.8171 7.79194 10.955 7.92097 11.0662C8.05017 11.1774 8.21029 11.2329 8.40131 11.2329Z" fill="#FF6467"/>
</svg>
