<svg width="497" height="710" viewBox="0 0 497 710" fill="none" xmlns="http://www.w3.org/2000/svg">
<rect x="0.676941" y="0.236572" width="495.855" height="708.843" rx="16" fill="#E2E8F0"/>
<path d="M60.5619 87.5541C57.1877 90.9391 49.6892 99.0544 53.1574 104.648C54.7745 107.255 62.7183 105.984 64.9693 105.393C68.2841 104.524 72.4407 102.719 74.9594 100.346C78.5805 96.9328 79.4067 88.8782 75.7821 85.0875C74.8018 84.0624 72.8205 84.4566 71.551 84.4566C67.5353 84.4566 63.5197 84.4566 59.5041 84.4566" stroke="black" stroke-width="3" stroke-linecap="round"/>
<path d="M101.286 74.1316C99.3109 90.019 99.1707 105.663 99.1707 121.626" stroke="black" stroke-width="3" stroke-linecap="round"/>
<path d="M124.557 71.5505C124.278 79.3086 123.421 86.9413 123.499 94.7244C123.542 98.887 124.344 99.1835 128.436 98.797C132.363 98.426 137.738 96.4855 139.66 92.8314C142.006 88.3729 140.424 80.6488 140.424 75.6805" stroke="black" stroke-width="3" stroke-linecap="round"/>
<path d="M125.086 85.4893C138.493 85.4893 151.889 86.0055 165.282 86.0055" stroke="black" stroke-width="3" stroke-linecap="round"/>
<path d="M165.811 75.6804V97.3629" stroke="black" stroke-width="3" stroke-linecap="round"/>
<path d="M180.62 76.7129C182.207 81.1559 181.17 86.4328 181.148 91.0531C181.126 95.9095 181.148 100.766 181.148 105.623" stroke="black" stroke-width="3" stroke-linecap="round"/>
<path d="M157.348 108.72C157.798 113.553 160.499 120 166.134 120.537C169.89 120.894 173.589 119.838 177.211 119.045C180.366 118.355 183.997 118.139 186.966 116.98" stroke="black" stroke-width="3" stroke-linecap="round"/>
<path d="M198.073 77.7454C203.553 76.2035 209.65 73.4828 215.467 73.1279C217.269 73.0179 220.31 72.3957 217.642 74.1317" stroke="black" stroke-width="3" stroke-linecap="round"/>
<path d="M200.717 87.0379C207.558 85.8265 214.616 85.0683 221.373 83.4529C223.432 82.9606 223.595 82.8199 221.873 83.9404" stroke="black" stroke-width="3" stroke-linecap="round"/>
<path d="M207.593 88.5867C207.07 92.2865 205.838 95.3258 210.355 96.3304C213.545 97.0398 217.664 97.3558 220.815 96.3304" stroke="black" stroke-width="3" stroke-linecap="round"/>
<path d="M203.891 120.594C216.649 117.542 229.96 117.316 243.028 116.98" stroke="black" stroke-width="3" stroke-linecap="round"/>
<path d="M267.357 79.2941C269.56 77.8605 279.542 71.1824 278.141 77.7167C276.955 83.2482 273.966 89.2787 270.531 93.7491" stroke="black" stroke-width="3" stroke-linecap="round"/>
<path d="M277.935 84.9729C280.456 85.0578 283.733 85.5249 285.839 87.0666C286.881 87.8296 287.672 88.5866 289.042 88.5866" stroke="black" stroke-width="3" stroke-linecap="round"/>
<path d="M269.473 64.8391C272.612 66.2809 276.247 69.2024 279.522 70.0016" stroke="black" stroke-width="3" stroke-linecap="round"/>
<path d="M280.051 103.042C281.026 106.005 281.64 109.317 282.989 112.105C283.756 113.691 283.51 115.474 284.282 116.98" stroke="black" stroke-width="3" stroke-linecap="round"/>
<path d="M273.704 116.98C281.476 117.944 289.654 117.496 297.504 117.496" stroke="black" stroke-width="3" stroke-linecap="round"/>
<path d="M305.437 86.0054C311.906 84.8486 318.066 84.8344 324.477 83.9404" stroke="black" stroke-width="3" stroke-linecap="round"/>
<path d="M309.668 86.5217C309.668 88.7502 308.583 97.3427 311.549 98.3954C317.393 100.47 323.644 98.6666 329.237 96.8467" stroke="black" stroke-width="3" stroke-linecap="round"/>
<path d="M338.757 77.7454V106.655" stroke="black" stroke-width="3" stroke-linecap="round"/>
<path d="M340.873 93.7493C343.638 92.4381 346.352 92.1696 349.335 91.6843" stroke="black" stroke-width="3" stroke-linecap="round"/>
<path d="M350.922 70.0017V112.334" stroke="black" stroke-width="3" stroke-linecap="round"/>
<path d="M363.086 76.1966C366.023 74.9848 369.229 73.0511 372.489 72.6976C374.034 72.5299 372.582 81.6031 372.371 82.3916C371.18 86.8494 367.72 90.5051 366.259 94.7816" stroke="black" stroke-width="3" stroke-linecap="round"/>
<path d="M374.722 83.9404C377.652 84.3305 381.165 86.062 383.713 87.5542" stroke="black" stroke-width="3" stroke-linecap="round"/>
<path d="M391.117 72.0667C391.513 77.8574 394.241 84.355 396.377 89.7051C397.835 93.3594 398.867 97.5203 400.637 100.977" stroke="black" stroke-width="3" stroke-linecap="round"/>
<path d="M398.521 86.0054C403.104 84.8553 408.07 82.908 412.801 82.908" stroke="black" stroke-width="3" stroke-linecap="round"/>
<path d="M386.886 107.688C381.296 107.799 378.318 112.129 379.54 117.496C380.359 121.092 388.741 122.016 391.558 122.372C394.527 122.748 396.754 122.835 398.933 120.709C401.083 118.61 399.828 114.292 397.699 112.592C394.572 110.095 389.673 110.362 386.357 108.204" stroke="black" stroke-width="3" stroke-linecap="round"/>
<path d="M54.6218 171.147C48.0957 174.957 41.4908 178.654 34.9977 182.517C34.464 182.835 33.7592 183.207 33.3059 183.65C32.4559 184.479 29.2609 185.712 30.3816 186.74C34.1094 190.158 39.401 192.905 43.7705 195.539C46.1367 196.966 48.34 198.635 50.7066 200.021" stroke="black" stroke-width="2" stroke-linecap="round"/>
<path d="M444.66 169.295C450.989 173.145 457.395 176.881 463.693 180.785C464.21 181.105 464.894 181.482 465.333 181.929C466.158 182.767 469.256 184.013 468.169 185.052C464.554 188.506 459.422 191.281 455.184 193.943C452.889 195.385 450.752 197.072 448.457 198.472" stroke="black" stroke-width="2" stroke-linecap="round"/>
<path d="M69.4122 178.365C70.1917 176.996 71.163 176.178 72.7957 176.242C74.2017 176.297 72.9399 180.231 72.6265 180.936C71.8281 182.735 70.0515 185.717 68.5664 187.046C68.0018 187.551 66.506 188.879 68.1072 187.707" stroke="black" stroke-width="2" stroke-linecap="round"/>
<path d="M71.5874 183.461C73.7748 184.833 76.4828 185.718 78.1127 187.707" stroke="black" stroke-width="2" stroke-linecap="round"/>
<path d="M80.2877 182.611C83.3875 181.25 87.3683 180.61 90.7281 180.064" stroke="black" stroke-width="2" stroke-linecap="round"/>
<path d="M91.5981 176.242C91.5981 179.553 91.5981 182.863 91.5981 186.174C91.5981 187.094 91.4971 192.526 92.4681 191.104" stroke="black" stroke-width="2" stroke-linecap="round"/>
<path d="M98.9934 177.516C98.9934 183.019 100.733 188.226 100.733 193.652" stroke="black" stroke-width="2" stroke-linecap="round"/>
<path d="M140.466 170.153C141.984 171.676 143.359 173.318 145.178 174.517C145.97 175.039 146.695 175.231 146.991 176.098" stroke="black" stroke-width="2" stroke-linecap="round"/>
<path d="M136.949 179.321C138.131 178.804 145.727 176.292 145.118 179.415C144.971 180.166 143.179 185.509 144.223 185.666C145.832 185.908 151.305 185.361 151.305 182.93C151.305 181.289 148.291 180.594 146.954 180.594" stroke="black" stroke-width="2" stroke-linecap="round"/>
<path d="M147.12 185.6C146.372 187.883 146.685 190.438 146.685 192.818" stroke="black" stroke-width="2" stroke-linecap="round"/>
<path d="M141.345 194.172C144.254 193.926 147.126 193.748 150.045 193.748C151.323 193.748 152.406 193.87 153.525 193.323" stroke="black" stroke-width="2" stroke-linecap="round"/>
<path d="M194.022 176.16C192.084 181.437 188.186 186.385 187.062 191.871" stroke="black" stroke-width="2" stroke-linecap="round"/>
<path d="M190.542 183.461C191.478 185.104 193.471 187.103 195.327 187.707" stroke="black" stroke-width="2" stroke-linecap="round"/>
<path d="M200.112 180.064C198.924 182.964 197.713 185.928 196.826 188.934C196.488 190.076 196.396 191.7 197.067 189.405" stroke="black" stroke-width="2" stroke-linecap="round"/>
<path d="M197.937 186.433C200.486 186.788 202.501 188.818 204.463 190.255" stroke="black" stroke-width="2" stroke-linecap="round"/>
<path d="M209.248 177.516C209.976 183.56 210.208 189.421 211.423 195.35" stroke="black" stroke-width="2" stroke-linecap="round"/>
<path d="M211.423 187.707C213.488 187.707 215.465 187.282 217.513 187.282" stroke="black" stroke-width="2" stroke-linecap="round"/>
<path d="M220.123 182.187C224.772 181.637 229.36 181.337 234.044 181.337" stroke="black" stroke-width="2" stroke-linecap="round"/>
<path d="M229.694 183.461V189.405" stroke="black" stroke-width="2" stroke-linecap="round"/>
<path d="M233.609 183.885V190.255" stroke="black" stroke-width="2" stroke-linecap="round"/>
<path d="M223.051 191.607H235.232" stroke="black" stroke-width="2" stroke-linecap="round"/>
<path d="M242.556 177.018C242.556 181.375 242.556 185.731 242.556 190.087C242.556 190.829 241.98 197.319 242.991 194.852" stroke="black" stroke-width="2" stroke-linecap="round"/>
<path d="M254.799 181.109C255.211 184.477 255.955 187.76 256.383 191.099C256.682 193.435 259.181 193.242 261.064 192.924C262.96 192.603 263.445 188.209 263.894 186.895C264.417 185.363 265.371 183.045 265.371 181.422" stroke="black" stroke-width="2" stroke-linecap="round"/>
<path d="M256.721 188.928C258.618 188.928 260.451 188.302 262.399 188.302C262.717 188.302 264.685 188.302 264.41 188.302" stroke="black" stroke-width="2" stroke-linecap="round"/>
<path d="M309.841 179.593C308.591 181.661 307.154 183.541 305.641 185.43C305.003 186.226 305.039 186.904 304.573 187.654C304.217 188.226 303.713 188.995 303.113 189.287" stroke="black" stroke-width="2" stroke-linecap="round"/>
<path d="M307.919 185.407C309.116 187.068 311.528 190.098 313.686 190.098" stroke="black" stroke-width="2" stroke-linecap="round"/>
<path d="M321.595 176.16C321.595 182.364 321.461 188.566 321.898 194.75C321.992 196.089 322.236 197.324 322.236 198.677" stroke="black" stroke-width="2" stroke-linecap="round"/>
<path d="M322.236 188.302C324.653 187.57 327.105 187.677 329.605 187.677" stroke="black" stroke-width="2" stroke-linecap="round"/>
<path d="M341.968 177.804C340.51 179.272 339.48 181.304 338.515 183.12C337.857 184.358 336.971 185.556 336.522 186.873" stroke="black" stroke-width="2" stroke-linecap="round"/>
<path d="M340.687 181.556C343.315 182.911 346.316 184.862 348.376 186.873" stroke="black" stroke-width="2" stroke-linecap="round"/>
<path d="M351.259 175.302C351.259 180.102 351.9 194.487 351.9 189.687" stroke="black" stroke-width="2" stroke-linecap="round"/>
<path d="M351.9 182.495C353.437 182.416 354.81 181.869 356.386 181.869" stroke="black" stroke-width="2" stroke-linecap="round"/>
<path d="M357.667 175.615C357.667 179.479 357.538 183.237 358.29 187.029C358.594 188.561 358.628 190.009 358.628 191.564" stroke="black" stroke-width="2" stroke-linecap="round"/>
<path d="M352.541 195.316C350.717 197.096 348.465 200.595 350.138 203.135C351.771 205.614 354.839 204.315 356.457 202.579C357.561 201.393 359.081 199.438 358.272 197.662C357.649 196.294 354.803 195.316 353.502 195.316" stroke="black" stroke-width="2" stroke-linecap="round"/>
<path d="M367.293 182.647H375.943" stroke="black" stroke-width="2" stroke-linecap="round"/>
<path d="M370.817 183.586C370.817 185.758 369.916 189.568 372.277 190.848C374.189 191.885 376.041 189.824 377.866 189.528" stroke="black" stroke-width="2" stroke-linecap="round"/>
<path d="M382.992 179.833C383.114 182.219 384.011 184.552 384.202 186.956C384.409 189.565 384.273 192.228 384.273 194.844" stroke="black" stroke-width="2" stroke-linecap="round"/>
<path d="M384.273 186.4C385.959 185.873 387.813 186.081 389.399 185.462" stroke="black" stroke-width="2" stroke-linecap="round"/>
<path d="M390.681 177.018C390.681 183.429 390.188 190.272 392.283 196.407" stroke="black" stroke-width="2" stroke-linecap="round"/>
<path d="M403.1 173.585C403.9 174.453 405.343 176.145 405.343 177.338" stroke="black" stroke-width="2" stroke-linecap="round"/>
<path d="M402.46 178.589C404.251 178.589 407.906 178.593 407.906 181.23C407.906 183.602 404.669 186.49 405.699 188.753C406.143 189.728 409.478 189.253 410.398 189.222C412.29 189.158 413.326 187.52 413.994 186.095C415.364 183.168 410.081 182.375 408.227 181.716" stroke="black" stroke-width="2" stroke-linecap="round"/>
<path d="M411.11 190.16C411.185 191.698 411.751 193.15 411.751 194.695C411.751 195.597 411.551 196.591 412.071 197.353" stroke="black" stroke-width="2" stroke-linecap="round"/>
<path d="M407.076 199.069C412.094 198.902 416.908 197.353 422.022 197.353" stroke="black" stroke-width="2" stroke-linecap="round"/>
<path d="M420.922 175.302C420.922 180.273 421.95 185.274 422.453 190.243C422.83 193.971 422.524 197.824 422.524 201.571" stroke="black" stroke-width="2" stroke-linecap="round"/>
<path d="M275.332 177.68C274.603 180.713 273.681 183.791 273.344 186.899C273.093 189.223 272.963 191.57 272.774 193.901C272.666 195.237 272.445 196.534 272.445 197.875" stroke="black" stroke-width="2" stroke-linecap="round"/>
<path d="M274.53 187.699C275.305 187.149 277.289 187.543 278.165 187.543C278.834 187.543 279.504 187.594 280.143 187.386" stroke="black" stroke-width="2" stroke-linecap="round"/>
<path d="M282.111 177.018C281.202 180.524 280.915 184.095 280.247 187.651C279.758 190.256 279.168 192.944 278.942 195.592C278.867 196.478 278.936 197.405 278.936 198.294" stroke="black" stroke-width="2" stroke-linecap="round"/>
<path d="M117.308 164.992C117.255 166.341 116.187 167.843 115.454 168.955C115.135 169.44 114.798 170.094 114.307 170.333" stroke="black" stroke-width="3" stroke-linecap="round"/>
<path d="M117.935 164.835C117.935 169.228 117.722 173.864 118.54 178.197C118.868 179.935 118.462 181.745 118.725 183.493C118.966 185.087 118.989 186.855 118.989 188.464C118.989 193.674 118.989 198.884 118.989 204.094" stroke="black" stroke-width="3" stroke-linecap="round"/>
<path d="M159.231 172.534C159.194 174.626 158.838 176.694 158.75 178.779C158.579 182.85 158.529 186.975 158.65 191.049C158.711 193.136 158.697 195.219 158.907 197.294C158.966 197.877 158.929 198.476 158.929 199.062" stroke="black" stroke-width="2" stroke-linecap="round"/>
<path d="M68.9688 291.181C70.9976 290.587 82.2964 287.44 82.8896 290.721C83.9035 296.329 82.1345 302.137 82.1345 307.763" stroke="black" stroke-width="3" stroke-linecap="round"/>
<path d="M92.1589 279.74C92.6194 283.841 93.1167 288.27 93.5941 292.522C94.1823 297.761 94.7706 303 95.3588 308.239C95.986 313.826 96.6093 319.377 97.2351 324.951" stroke="black" stroke-width="3" stroke-linecap="round"/>
<path d="M110.165 289.937C111.283 288.422 113.768 287.144 115.686 286.897C117.431 286.673 117.753 289.604 117.833 290.651C118.152 294.861 118.234 298.977 118.234 303.203" stroke="black" stroke-width="3" stroke-linecap="round"/>
<path d="M132.249 282.476C131.515 290.192 130.975 313.44 130.975 305.69" stroke="black" stroke-width="3" stroke-linecap="round"/>
<path d="M131.4 295.327C134.265 294.586 136.917 294.083 139.894 294.083" stroke="black" stroke-width="3" stroke-linecap="round"/>
<path d="M124.21 307.087C124.21 309.407 124.864 313.305 127.867 313.305C129.771 313.305 131.102 312.967 132.939 312.568C135.265 312.064 137.636 312.206 139.923 311.647" stroke="black" stroke-width="3" stroke-linecap="round"/>
<path d="M79.5863 382.797V396.062" stroke="black" stroke-width="3" stroke-linecap="round"/>
<path d="M95.7249 382.382C94.9229 387.079 94.3463 393.935 91.2184 397.928C90.3707 399.01 85.8337 405.605 84.6827 404.883C83.0205 403.84 83.3389 397.186 84.0221 395.556C85.4689 392.104 92.665 392.829 95.7249 392.332" stroke="black" stroke-width="3" stroke-linecap="round"/>
<path d="M89.779 406.012V418.034" stroke="black" stroke-width="3" stroke-linecap="round"/>
<path d="M80.8604 421.765C88.5958 420.745 96.2581 419.668 103.794 418.034" stroke="black" stroke-width="3" stroke-linecap="round"/>
<path d="M120.782 383.626C115.513 388.932 111.904 394.903 107.687 400.968C107.333 401.478 104.54 406.515 105.068 403.939" stroke="black" stroke-width="3" stroke-linecap="round"/>
<path d="M112.713 393.99C115.782 396.802 118.906 399.535 122.033 402.281C122.633 402.808 122.987 403.269 123.33 403.939" stroke="black" stroke-width="3" stroke-linecap="round"/>
<path d="M136.921 386.375C136.921 396.117 138.195 405.677 138.195 415.394" stroke="black" stroke-width="3" stroke-linecap="round"/>
<path d="M138.195 397.306C140.3 396.705 142.416 396.167 144.542 395.648C145.741 395.355 145.615 395.164 145.84 396.477" stroke="black" stroke-width="3" stroke-linecap="round"/>
<path d="M135.282 416.761C131.662 418.849 127.637 420.727 127.637 425.375C127.637 429.282 131.72 428.978 134.22 427.332C137.578 425.121 138.254 424.141 138.254 420.032C138.254 417.438 138.485 416.347 135.706 416.347" stroke="black" stroke-width="3" stroke-linecap="round"/>
<path d="M75.7785 496.566C80.8159 494.041 85.7386 491.568 91.1749 489.995C93.1544 489.421 92.0303 491.318 91.575 492.499C89.8776 496.903 87.1845 500.489 84.1803 504.121C82.8494 505.73 80.6071 508.12 80.0001 509.898" stroke="black" stroke-width="3" stroke-linecap="round"/>
<path d="M90.1816 500.202C94.8165 503.027 99.6251 505.519 104.336 508.201" stroke="black" stroke-width="3" stroke-linecap="round"/>
<path d="M89.4366 516.685C89.8244 520.907 90.2017 525.142 90.7887 529.343C90.9102 530.214 91.1749 531.074 91.1749 531.956" stroke="black" stroke-width="3" stroke-linecap="round"/>
<path d="M80.4968 535.107C87.0347 533.268 93.6328 532.036 100.28 530.663C102.29 530.248 104.37 529.925 106.323 529.29" stroke="black" stroke-width="3" stroke-linecap="round"/>
<path d="M110.048 500.202C111.887 498.407 114.675 496.552 117.139 495.705C118.531 495.226 118.397 496.794 118.491 497.751C118.982 502.768 119.236 508.005 119.236 513.049" stroke="black" stroke-width="3" stroke-linecap="round"/>
<path d="M123.458 503.838C129.571 503.083 135.516 502.644 141.586 501.656" stroke="black" stroke-width="3" stroke-linecap="round"/>
<path d="M142.827 487.84V512.079" stroke="black" stroke-width="3" stroke-linecap="round"/>
<path d="M135.229 511.851C136.591 517.198 137.794 522.607 139.258 527.929C139.36 528.302 139.575 529.196 140.113 529.249C143.014 529.536 146.305 528.741 149.191 528.549C151.989 528.363 154.777 528.333 157.579 528.333" stroke="black" stroke-width="3" stroke-linecap="round"/>
<path d="M194.852 301.287C196.865 297.75 200.273 294.417 204.453 293.525C206.46 293.096 208.438 295.228 209.336 296.782C211.23 300.062 208.795 305.41 207.234 308.345C205.843 310.962 203.908 313.164 201.527 314.961C201.321 315.117 197.526 317.675 197.695 317.857C198.344 318.553 203.246 317.938 204 317.938C209.744 317.938 215.447 318.026 221.182 318.3" stroke="black" stroke-width="2" stroke-linecap="round"/>
<path d="M221.923 291.876C221.923 295.961 221.694 300.131 222.129 304.203C222.251 305.335 222.665 306.481 222.665 307.622C222.665 308.195 233.228 307.457 234.326 307.521C235.265 307.576 237.567 307.659 237.787 308.949C238.201 311.375 235.826 315.565 234.676 317.576C232.622 321.165 228.172 323.168 224.148 323.729" stroke="black" stroke-width="2" stroke-linecap="round"/>
<path d="M223.036 300.563C227.973 299.504 232.949 298.767 237.952 298.069C238.335 298.016 240.841 298.02 241.207 297.305" stroke="black" stroke-width="2" stroke-linecap="round"/>
<path d="M248.994 317.938C250.366 316.761 251.898 315.976 253.444 315.042" stroke="black" stroke-width="2" stroke-linecap="round"/>
<path d="M266.423 298.029C265.278 300.853 261.932 310.503 268.072 311.06C270.717 311.3 276.861 310.964 278.414 308.345C280.114 305.479 276.362 302.093 274.747 300.201C272.755 297.868 268.772 298.656 266.053 298.391" stroke="black" stroke-width="2" stroke-linecap="round"/>
<path d="M280.886 289.342C282.249 294.555 283.162 300.818 285.583 305.751C286.203 307.014 287.225 306.833 288.385 306.535C292.905 305.374 298.987 309.7 302.271 312.086C305.711 314.584 307.735 316.539 304.578 319.868C302.844 321.697 300.976 323.496 298.686 324.654C297.017 325.499 296.842 325.226 295.719 324.815" stroke="black" stroke-width="2" stroke-linecap="round"/>
<path d="M284.223 298.029C289.119 296.926 293.837 295.592 298.686 294.409" stroke="black" stroke-width="2" stroke-linecap="round"/>
<path d="M320.565 311.06C319.6 312.003 318.712 312.868 317.969 313.956" stroke="black" stroke-width="2" stroke-linecap="round"/>
<path d="M331.69 296.219C330.86 298.447 326.945 304.231 330.825 305.59C332.34 306.121 335.308 307.097 336.964 306.656C340.661 305.672 343.252 304.576 342.795 300.563C342.406 297.151 338.469 297.407 335.893 296.662C334.392 296.228 332.134 296.581 330.578 296.581" stroke="black" stroke-width="2" stroke-linecap="round"/>
<path d="M357.649 294.409C357.007 292.78 355.457 287.974 352.807 287.974C350.893 287.974 349.672 290.289 349.511 291.856C349.366 293.267 349.907 294.89 350.809 295.978C351.736 297.095 353.643 296.505 354.847 296.219C355.902 295.969 356.969 295.763 358.02 295.495C358.31 295.421 359.503 294.863 359.503 295.093C359.503 298.261 359.575 301.438 359.482 304.605C359.328 309.883 358.391 315.217 358.391 320.471" stroke="black" stroke-width="2" stroke-linecap="round"/>
<path d="M391.766 289.342C388.157 293.425 382.335 299.744 384.967 305.832C387.046 310.641 392.848 314.532 398.07 315.042" stroke="black" stroke-width="2" stroke-linecap="round"/>
<path d="M410.678 284.274C415.369 283.371 420.103 282.535 424.852 281.982C427.836 281.634 428.417 281.896 428.025 284.717C427.726 286.872 426.995 288.965 426.995 291.152" stroke="black" stroke-width="2" stroke-linecap="round"/>
<path d="M413.274 297.305C417.421 296.666 421.394 294.933 425.47 293.967C427.072 293.588 428.773 293.469 430.333 292.962" stroke="black" stroke-width="2" stroke-linecap="round"/>
<path d="M418.836 306.716C418.836 309.402 418.608 312.151 419.125 314.8C419.202 315.193 419.007 316.14 419.599 316.047C422.783 315.55 426.346 314.972 429.426 314.036C432.211 313.19 432.033 308.753 432.145 306.415C432.248 304.276 432.874 300.744 432.125 298.673C431.976 298.262 428.816 299.46 428.396 299.557C424.138 300.54 419.788 301.908 415.87 303.821" stroke="black" stroke-width="2" stroke-linecap="round"/>
<path d="M443.682 282.826C447.916 283.356 455.245 283.279 458.639 286.526C459.566 287.413 459.453 289.63 459.546 290.79C459.821 294.197 457.577 296.772 455.384 299.195C453.796 300.95 451.537 302.294 449.533 303.539C448.322 304.292 447.375 305.376 446.155 306.113C445.057 306.776 446.89 304.382 447.02 304.183" stroke="black" stroke-width="2" stroke-linecap="round"/>
<path d="M312.036 342.19C312.354 346.78 312.778 351.285 312.778 355.884C312.778 358.215 312.271 361.042 313.149 363.184" stroke="black" stroke-width="3" stroke-linecap="round"/>
<path d="M347.636 348.705C351.895 348.507 355.995 345.809 360.245 345.809" stroke="black" stroke-width="3" stroke-linecap="round"/>
<path d="M372.853 334.95V355.945" stroke="black" stroke-width="3" stroke-linecap="round"/>
<path d="M387.316 349.791C384.644 346.923 379.337 342.998 380.723 338.49C381.343 336.471 382.991 334.324 385.338 334.226C387.412 334.14 387.8 334.576 387.645 336.66C387.425 339.62 386.319 342.291 385.173 345.005C383.327 349.377 380.838 354.353 382.577 359.243C383.516 361.882 385.911 363.266 388.675 361.978C396.469 358.345 393.917 349.236 386.203 347.981" stroke="black" stroke-width="3" stroke-linecap="round"/>
<path d="M402.891 343.638C403.632 349.122 404.375 354.523 405.322 359.967C405.628 361.729 405.857 363.566 405.857 365.356" stroke="black" stroke-width="3" stroke-linecap="round"/>
<path d="M403.632 344.361C405.876 342.825 406.954 342.416 409.731 343.195C413.49 344.25 412.735 346.536 411.09 349.308C410.08 351.012 409.058 353.379 407.341 354.497" stroke="black" stroke-width="3" stroke-linecap="round"/>
<path d="M419.164 343.502C419.164 346.586 419.368 349.601 419.514 352.672C419.596 354.397 419.535 355.646 419.535 353.074C419.535 351.193 421.161 342.402 423.82 346.337C425.046 348.151 424.9 350.44 426.045 352.149C426.318 352.557 426.618 351.345 426.828 350.902C427.568 349.342 428.376 347.822 429.3 346.358C431.764 342.456 433.85 352.564 433.997 353.999" stroke="black" stroke-width="3" stroke-linecap="round"/>
<path d="M196.139 402.071C203.039 401.129 209.719 400.639 216.681 400.639C218.139 400.639 219.597 400.639 221.056 400.639C221.55 400.639 221.387 400.639 221.083 400.639" stroke="black" stroke-width="2" stroke-linecap="round"/>
<path d="M212.279 402.548C211.752 405.958 211.952 409.59 212.062 413.025C212.11 414.554 212.523 416.07 212.523 417.587" stroke="black" stroke-width="2" stroke-linecap="round"/>
<path d="M227.93 408.277C226.876 409.142 224.21 410.988 225.132 412.786C225.594 413.69 228.881 412.841 229.479 412.574C230.586 412.081 231.55 411.052 231.789 409.869C231.955 409.042 231.237 409.215 230.607 409.113C230.129 409.035 226.943 409.076 227.93 408.755" stroke="black" stroke-width="2" stroke-linecap="round"/>
<path d="M237.468 405.174C237.863 409.56 238.074 414.005 238.799 418.356C239.035 419.77 238.935 418.879 238.935 418.064" stroke="black" stroke-width="2" stroke-linecap="round"/>
<path d="M238.201 408.994C238.85 408.306 242.852 403.531 243.31 407.216C243.589 409.462 241.311 410.799 240.402 412.574" stroke="black" stroke-width="2" stroke-linecap="round"/>
<path d="M266.569 393.955C266.569 397.041 266.163 400.448 267.086 403.45C267.474 404.714 268.144 405.991 268.268 407.323C268.383 408.56 269.436 407.723 270.156 407.309C271.48 406.55 272.788 406.129 274.327 406.129C274.999 406.129 275.153 406.641 275.265 407.243C275.694 409.562 274.8 411.022 272.738 412.256C268.861 414.574 264.347 415.84 259.831 416.102C258.366 416.187 257.766 416.39 257.766 414.961" stroke="black" stroke-width="2" stroke-linecap="round"/>
<path d="M258.255 402.548C265.915 401.2 273.675 399.684 281.487 399.684" stroke="black" stroke-width="2" stroke-linecap="round"/>
<path d="M248.23 437.222C248.571 440.851 248.457 445.901 250.662 449.129C250.911 449.494 251.585 449.382 251.95 449.382C253.421 449.382 254.892 449.382 256.362 449.382C257.82 449.382 257.238 445.71 257.227 444.71C257.194 441.534 256.708 438.369 256.708 435.195" stroke="black" stroke-width="2" stroke-linecap="round"/>
<path d="M248.749 442.965H257.228" stroke="black" stroke-width="2" stroke-linecap="round"/>
<path d="M265.533 433.844C265.411 439.029 265.453 444.205 265.706 449.383" stroke="black" stroke-width="2" stroke-linecap="round"/>
<path d="M265.706 441.276C268.342 440.33 271.104 439.952 273.838 439.418" stroke="black" stroke-width="2" stroke-linecap="round"/>
<path d="M272.08 433.168C271.756 438.5 271.885 443.72 272.08 449.045" stroke="black" stroke-width="2" stroke-linecap="round"/>
<path d="M271.589 453.605C269.818 456.061 267.897 458.757 266.225 461.205" stroke="black" stroke-width="2" stroke-linecap="round"/>
<path d="M269.845 456.476C271.757 457.79 274.002 458.982 275.382 460.867" stroke="black" stroke-width="2" stroke-linecap="round"/>
<path d="M279.721 445.329C280.689 444.584 281.883 443.452 283.192 443.33C283.549 443.297 283.328 445.535 283.307 445.732C283.066 447.991 281.973 450.184 280.817 452.122C280.622 452.45 279.433 453.633 279.721 453.774" stroke="black" stroke-width="2" stroke-linecap="round"/>
<path d="M282.144 449.214L289.411 454.28" stroke="black" stroke-width="2" stroke-linecap="round"/>
<path d="M296.505 434.013C296.518 439.186 296.41 444.323 297.351 449.429C297.491 450.187 297.716 450.971 297.716 451.747" stroke="black" stroke-width="2" stroke-linecap="round"/>
<path d="M320.556 445.667C326.367 444.787 332.332 444.653 338.205 444.653" stroke="black" stroke-width="2" stroke-linecap="round"/>
<path d="M329.727 436.209C329.25 441.738 328.919 447.576 329.727 453.098" stroke="black" stroke-width="2" stroke-linecap="round"/>
<path d="M360.18 425.062C360.74 424.824 367.82 421.149 368.274 422.641C368.552 423.554 368.463 424.713 368.476 425.644C368.506 427.751 368.467 429.857 368.293 431.958C368.139 433.831 367.793 435.706 367.793 437.588C367.793 438.637 367.793 439.675 367.793 437.898" stroke="black" stroke-width="2" stroke-linecap="round"/>
<path d="M362.084 434.013C364.101 432.948 366.203 432.159 368.313 431.311" stroke="black" stroke-width="2" stroke-linecap="round"/>
<path d="M375.407 421.515C375.407 426.969 375.256 432.345 376.022 437.748C376.093 438.249 376.099 438.745 376.099 439.249" stroke="black" stroke-width="2" stroke-linecap="round"/>
<path d="M375.926 434.857C379.127 433.377 382.316 431.758 385.654 430.579C386.072 430.431 386.339 430.359 386.654 430.128" stroke="black" stroke-width="2" stroke-linecap="round"/>
<path d="M387.519 423.879C390.843 421.948 394.482 420.481 397.901 418.812" stroke="black" stroke-width="2" stroke-linecap="round"/>
<path d="M390.806 423.88C392.493 423.753 394.132 423.185 395.824 423.035" stroke="black" stroke-width="2" stroke-linecap="round"/>
<path d="M390.634 424.724C390.523 425.139 390.008 426.143 390.672 426.413C391.815 426.876 393.51 426.677 394.709 426.713C395.658 426.742 396.606 426.751 397.555 426.751" stroke="black" stroke-width="2" stroke-linecap="round"/>
<path d="M395.997 427.933C395.997 429.939 395.874 431.895 396.344 433.844" stroke="black" stroke-width="2" stroke-linecap="round"/>
<path d="M388.211 435.026C392.652 434.641 396.924 433.264 401.361 432.831" stroke="black" stroke-width="2" stroke-linecap="round"/>
<path d="M394.959 438.911C396.7 438.459 398.455 438.041 400.208 437.635C400.952 437.463 401.78 437.21 402.553 437.194C403.274 437.179 403.092 438.051 403.092 438.526C403.092 440.344 403.092 442.161 403.092 443.978" stroke="black" stroke-width="2" stroke-linecap="round"/>
<path d="M362.603 464.076C361.624 465.97 360.919 467.97 360.526 470.063C360.327 471.124 360.228 472.148 361.295 472.746C363.442 473.949 366.98 472.615 368.582 471.076C369.764 469.94 370.497 468.134 369.216 466.807C368.703 466.275 368.024 465.811 367.323 465.549C366.863 465.378 366.81 465.469 367.101 465.09" stroke="black" stroke-width="2" stroke-linecap="round"/>
<path d="M378.521 460.867C378.306 466.302 378.348 471.662 378.348 477.081" stroke="black" stroke-width="2" stroke-linecap="round"/>
<path d="M383.712 460.361C384.09 461.736 384.75 463.299 384.75 464.752" stroke="black" stroke-width="2" stroke-linecap="round"/>
<path d="M385.443 459.516C387.692 459.427 390.174 459.091 392.431 459.366C393.31 459.473 391.016 463.066 390.797 463.42C390.25 464.301 389.471 466.194 388.346 466.572C387.856 466.737 387.17 466.61 386.654 466.61" stroke="black" stroke-width="2" stroke-linecap="round"/>
<path d="M392.364 466.61C392.193 469.005 391.884 471.367 392.537 473.703" stroke="black" stroke-width="2" stroke-linecap="round"/>
<path d="M387.346 476.237C391.125 475.834 394.808 474.672 398.478 473.741C399.345 473.521 400.124 473.366 401.015 473.366" stroke="black" stroke-width="2" stroke-linecap="round"/>
<path d="M400.669 461.881C402.644 460.665 404.66 459.508 406.706 458.409C407.352 458.062 408.055 457.611 408.802 457.49" stroke="black" stroke-width="2" stroke-linecap="round"/>
<path d="M401.707 465.258C404.493 464.715 407.115 463.606 409.936 463.175C410.134 463.145 412.581 462.743 412.089 463.063" stroke="black" stroke-width="2" stroke-linecap="round"/>
<path d="M404.476 464.583C404.573 466.45 403.94 469.711 406.773 469.265C407.932 469.083 408.915 468.401 410.071 468.205C410.954 468.055 411.888 468.13 412.781 468.13" stroke="black" stroke-width="2" stroke-linecap="round"/>
<path d="M417.799 456.138C417.772 462.895 417.626 469.648 417.626 476.406" stroke="black" stroke-width="2" stroke-linecap="round"/>
<path d="M425.239 457.489C426.614 456.384 427.843 455.49 429.507 454.881C430.504 454.516 430.46 454.622 430.68 455.669C431.44 459.275 431.94 462.959 433.199 466.441" stroke="black" stroke-width="2" stroke-linecap="round"/>
<path d="M425.413 462.387C426.71 461.735 428.244 460.867 429.738 460.867" stroke="black" stroke-width="2" stroke-linecap="round"/>
<path d="M427.489 465.934C427.489 468.302 427.662 470.66 427.662 473.028" stroke="black" stroke-width="2" stroke-linecap="round"/>
<path d="M421.26 473.028C426.251 473.346 431.334 473.568 436.313 473.028" stroke="black" stroke-width="2" stroke-linecap="round"/>
<path d="M429.046 476.068C429.365 477.359 429.681 478.651 430.036 479.934C430.066 480.04 430.159 480.665 430.373 480.759C431.18 481.115 432.62 480.412 433.372 480.234C435.297 479.778 437.438 479.108 439.428 479.108" stroke="black" stroke-width="2" stroke-linecap="round"/>
<path d="M202.993 516.851C202.034 521.083 201.051 525.276 199.819 529.438C199.512 530.477 199.544 530.822 199.37 529.634" stroke="black" stroke-width="2" stroke-linecap="round"/>
<path d="M202.993 516.851C203.71 519.146 204.425 521.432 205.284 523.681C205.446 524.105 205.845 526.024 206.398 526.189C207.067 526.388 208.787 524.837 209.216 524.527C210.715 523.441 212.063 522.197 213.272 520.81C213.362 520.706 214.823 518.794 214.897 518.83C215.158 518.958 214.438 522.727 214.417 522.895C213.964 526.494 213.332 530.104 213.024 533.714" stroke="black" stroke-width="2" stroke-linecap="round"/>
<path d="M222.219 520.115V529.906" stroke="black" stroke-width="2" stroke-linecap="round"/>
<path d="M224.17 518.211C226.3 519.852 227.974 521.401 229.402 523.65C229.725 524.159 229.949 524.701 230.238 525.222C230.378 525.474 233.218 522.862 233.288 522.804C233.567 522.574 236.76 519.452 237.158 520.674C237.707 522.358 237.29 524.866 237.235 526.597C237.164 528.83 236.962 531.053 236.74 533.276C236.657 534.105 236.709 532.769 236.709 532.626" stroke="black" stroke-width="2" stroke-linecap="round"/>
<path d="M249.527 520.658C248.938 521.284 243.231 525.902 246.307 526.642C249.691 527.456 252.996 526.097 255.44 523.817C258.536 520.929 252.671 521.202 250.92 521.202" stroke="black" stroke-width="2" stroke-linecap="round"/>
<path d="M248.691 534.258C252.145 534.085 255.642 532.772 259.016 532.097C262.634 531.374 266.32 530.896 269.868 529.906" stroke="black" stroke-width="2" stroke-linecap="round"/>
<path d="M265.41 520.115C265.813 519.96 271.957 517.235 272.082 518.573C272.305 520.968 270.195 522.373 269.311 524.346C269.106 524.801 270.319 524.502 270.828 524.527C272.975 524.63 275.118 524.727 277.268 524.738C278.609 524.746 282.634 524.738 281.292 524.738" stroke="black" stroke-width="2" stroke-linecap="round"/>
<path d="M279.621 525.282C279.621 528.178 279.598 530.882 280.178 533.714" stroke="black" stroke-width="2" stroke-linecap="round"/>
<path d="M272.097 535.89C277.186 535.749 282.336 535.346 287.423 535.346" stroke="black" stroke-width="2" stroke-linecap="round"/>
<path d="M269.683 550.159C267.747 555.338 265.697 560.501 264.018 565.768C263.861 566.259 263.514 567.191 263.553 567.838C263.674 569.842 264.885 564.04 265.504 562.127" stroke="black" stroke-width="2" stroke-linecap="round"/>
<path d="M267.454 556.958C269.99 559.433 272.774 561.809 274.978 564.574" stroke="black" stroke-width="2" stroke-linecap="round"/>
<path d="M264.668 574.094C269.293 573.887 273.969 573.55 278.6 573.55" stroke="black" stroke-width="2" stroke-linecap="round"/>
<path d="M281.665 560.494C283.962 559.428 286.071 558.653 288.6 558.379C289.115 558.323 290.187 558.13 290.69 558.349C291.258 558.595 290.861 562.139 290.861 562.58C290.861 564.977 290.951 567.353 291.139 569.742" stroke="black" stroke-width="2" stroke-linecap="round"/>
<path d="M283.894 565.39C287.832 564.681 291.62 564.574 295.598 564.574" stroke="black" stroke-width="2" stroke-linecap="round"/>
<path d="M284.173 573.822C287.865 573.822 291.397 573.786 295.04 573.278" stroke="black" stroke-width="2" stroke-linecap="round"/>
<path d="M300.056 558.319C302.056 557.327 305.225 555.126 307.394 556.989C308.322 557.786 308.244 559.263 307.796 560.283C307.013 562.067 303.504 563.552 303.4 565.39C303.295 567.233 307.32 565.926 308.353 565.723C309.602 565.477 312.595 565.39 312.595 563.758" stroke="black" stroke-width="2" stroke-linecap="round"/>
<path d="M315.939 553.967C315.269 559.033 315.381 564.102 315.381 569.198" stroke="black" stroke-width="2" stroke-linecap="round"/>
<path d="M171.346 395.259C172.639 395.679 173.321 399.5 173.557 400.655" stroke="black" stroke-width="2" stroke-linecap="round"/>
<path d="M174.663 410.369C174.745 412.357 175.013 414.327 175.216 416.305" stroke="black" stroke-width="2" stroke-linecap="round"/>
<path d="M310.923 573.006C311.353 574.326 311.673 576.047 312.44 577.252C312.948 578.05 314.882 577.313 315.505 577.161C318.56 576.416 321.515 575.341 324.577 574.638" stroke="black" stroke-width="2" stroke-linecap="round"/>
<path d="M330.428 554.239C327.967 556.95 325.137 559.672 323.462 562.942" stroke="black" stroke-width="2" stroke-linecap="round"/>
<path d="M169.134 291.642C169.357 293.597 170.24 294.893 170.24 297.039" stroke="black" stroke-width="2" stroke-linecap="round"/>
<path d="M326.249 558.047C328.139 559.513 329.885 561.993 332.379 562.398" stroke="black" stroke-width="2" stroke-linecap="round"/>
<path d="M170.793 307.832C170.855 308.438 171.117 308.893 171.346 309.451" stroke="black" stroke-width="2" stroke-linecap="round"/>
<path d="M336.28 550.431V566.206" stroke="black" stroke-width="2" stroke-linecap="round"/>
<path d="M336.28 558.318C337.92 558.072 340.163 557.375 341.574 556.687" stroke="black" stroke-width="2" stroke-linecap="round"/>
<path d="M337.952 561.583C341.341 561.583 344.841 560.67 348.262 560.495" stroke="black" stroke-width="2" stroke-linecap="round"/>
<path d="M342.689 566.478C341.086 569.187 338.523 571.204 336.837 573.837C336.564 574.264 336.53 574.896 336.001 574.638" stroke="black" stroke-width="2" stroke-linecap="round"/>
<path d="M339.345 570.014C341.901 571.806 344.421 573.733 347.225 575.152C347.598 575.341 347.85 575.454 348.262 575.454" stroke="black" stroke-width="2" stroke-linecap="round"/>
<path d="M363.309 555.599C363.508 557.615 363.047 559.951 365.662 559.951C367.558 559.951 369.182 559.502 370.507 558.047C371.531 556.923 369.533 555.307 368.479 555.115C367.241 554.89 363.443 555.055 364.702 555.055" stroke="black" stroke-width="2" stroke-linecap="round"/>
<path d="M376.405 553.695C377.011 557.265 378.031 560.77 378.634 564.302" stroke="black" stroke-width="2" stroke-linecap="round"/>
<path d="M368.324 568.11C368.946 570.271 369.235 574.311 372.256 574.366C374.075 574.399 376.175 574.07 377.798 573.278" stroke="black" stroke-width="2" stroke-linecap="round"/>
<path d="M382.257 551.791C383.109 551.49 388.236 549.671 389.47 549.252C390.19 549.008 390.938 548.439 391.669 548.648C391.986 548.739 391.559 551.403 391.545 551.489C391.191 553.662 390.217 555.644 389.78 557.775" stroke="black" stroke-width="2" stroke-linecap="round"/>
<path d="M390.616 553.967C393.264 554.128 395.777 555.092 398.418 555.327" stroke="black" stroke-width="2" stroke-linecap="round"/>
<path d="M386.994 566.75C393.236 564.582 399.5 562.264 406.097 561.371C406.955 561.255 408.586 561.044 409.007 560.223" stroke="black" stroke-width="2" stroke-linecap="round"/>
<path d="M399.811 567.566C398.569 568.829 396.398 570.585 397.644 572.522C398.965 574.576 402.154 575.343 403.898 573.641C404.889 572.673 407.039 571.09 405.245 569.878C404.152 569.14 402.474 569.058 401.205 568.82C399.622 568.525 400.148 568.654 401.483 568.654" stroke="black" stroke-width="2" stroke-linecap="round"/>
<path d="M175.877 518.069V529.309" stroke="black" stroke-width="2" stroke-linecap="round"/>
<path d="M171.448 555.249C171.448 560.768 170.636 566.635 173.219 571.677" stroke="black" stroke-width="2" stroke-linecap="round"/>
<path d="M405.617 179.03C408.193 179.03 410.805 178.454 413.23 177.744" stroke="black" stroke-width="2" stroke-linecap="round"/>
<path d="M46.731 631.557C55.2775 630.723 63.0818 625.779 70.7522 622.423C75.6978 620.259 80.1199 617.238 79.6275 624.447C79.0284 633.22 74.7158 640.761 70.0769 648.13C69.7841 648.595 58.5254 668.542 59.0792 658.677C59.8865 644.296 64.964 630.822 64.964 616.302C64.964 613.226 64.964 610.15 64.964 607.074C64.964 606.446 64.7606 604.595 64.964 605.191C65.8267 607.717 65.932 610.937 66.6522 613.477C69.6466 624.037 75.1708 633.872 80.2064 643.61C81.6723 646.445 86.477 652.069 86.477 655.522C86.477 657.819 82.1666 653.582 80.3028 652.179C73.1088 646.765 65.5096 641.681 58.7898 635.7C55.2831 632.579 51.4391 630.519 46.731 629.862" stroke="#F4E757" stroke-width="2" stroke-linecap="round"/>
<path d="M354.087 23.9082C357.966 25.3146 360.393 28.4168 364.313 29.9348C371.879 32.8645 379.082 36.5582 386.405 40.0105C387.154 40.3637 400.079 45.8146 395.28 45.9429C389.145 46.107 383.659 46.7802 377.626 48.1087C371.628 49.4297 366.845 52.1323 361.226 54.2295C358.658 55.1881 360.404 52.7013 361.13 51.7812C368.726 42.1537 378.111 33.4752 383.8 22.5899C385.057 20.1853 385.714 19.3392 384.765 22.8724C382.938 29.6765 380.112 36.1825 378.784 43.118C378.124 46.5627 377.572 50.0638 377.53 53.5703C377.514 54.8714 378.443 60.9796 377.337 61.951C377.212 62.061 369.688 54.6899 369.523 54.512C365.309 49.9757 362.861 46.0348 362.77 39.9163C362.72 36.5491 361.033 33.9296 361.033 30.6881" stroke="#F4E757" stroke-width="2" stroke-linecap="round"/>
<path d="M40.9992 54.2532C40.9405 57.1748 40.0431 61.5248 36.8888 62.5511C34.4363 63.349 36.2953 63.2806 37.8463 63.2806C39.8692 63.2806 39.5985 65.2877 40.2519 66.5633C40.651 67.3424 40.9829 68.2124 41.4196 68.9797C42.1898 70.333 41.6752 69.769 42.2604 68.4554C42.9434 66.9218 42.7761 65.4204 43.7551 63.9189C44.483 62.8022 45.6425 62.8847 46.3241 61.776C47.4467 59.9497 45.7874 60.2692 44.1521 59.3824C42.7771 58.6368 43.0503 56.6408 42.2604 55.4842" stroke="#F4E757" stroke-width="2" stroke-linecap="round"/>
<path d="M460.258 233.026C458.581 237.594 455.289 243.329 450.558 245.508C449.968 245.78 446.758 246.491 447.196 246.557C448.203 246.708 449.318 246.584 450.337 246.584C452.544 246.584 454.751 248.561 456.014 250.242C456.427 250.792 457.995 255.278 458.384 254.223C459.262 251.844 459.633 250.532 461.857 249.005C462.53 248.542 463.23 247.877 463.979 247.552C464.57 247.296 466.26 246.71 465.632 246.557C461.236 245.484 460.754 238.785 460.754 234.963" stroke="#F4E757" stroke-width="2" stroke-linecap="round"/>
<path d="M62.0184 445.303C62.6961 447.701 63.7937 454.024 60.4536 455.174C56.9574 456.379 60.7359 455.436 61.6447 456.656C62.7736 458.171 64.7214 458.933 65.4749 460.486C66.1296 461.835 66.6426 464.817 66.6426 464.817C66.6426 464.817 66.6426 462.477 66.6426 461.307C66.6426 458.827 68.3889 456.912 69.3517 454.764C70.2326 452.799 70.3417 452.69 68.0906 452.69C65.8571 452.69 63.6265 450.618 63.2795 448.586" stroke="#F4E757" stroke-width="2" stroke-linecap="round"/>
<path d="M383.607 642.574C387.768 635.766 393.433 633.471 399.573 628.638C401.305 627.274 403.026 625.983 404.879 624.777C406.567 623.678 409.67 619.519 409.944 621.481C410.457 625.157 404.269 633.425 402.709 636.265C400.797 639.745 398.675 643.44 396.535 646.812C395.307 648.745 392.237 653.854 391.614 651.661C389.1 642.797 389.654 629.647 391.518 620.681C391.925 618.724 398.949 628.756 399.911 629.956C404.51 635.694 408.524 641.592 412.356 647.847C414.159 650.791 419.158 659.714 418.192 656.416C417.334 653.483 412.368 650.716 409.847 649.542C402.875 646.297 397.021 641.136 390.216 637.489C385.656 635.046 381.434 634.151 376.661 632.404" stroke="#C0B648" stroke-width="2" stroke-linecap="round"/>
<path d="M102.298 21.3657C98.9834 27.4426 95.5304 33.3085 91.8795 39.163" stroke="#C0B648" stroke-width="2" stroke-linecap="round"/>
<path d="M89.2748 28.1455C96.0625 33.0711 102.878 37.9633 109.244 43.4003" stroke="#C0B648" stroke-width="2" stroke-linecap="round"/>
<path d="M88.4064 31.5356C95.3596 31.5356 102.403 30.1061 109.244 28.9932" stroke="#C0B648" stroke-width="2" stroke-linecap="round"/>
<path d="M324.551 339.759C328.005 339.228 336.134 337.511 334.737 343.799C333.853 347.776 329.674 350.428 325.934 350.428C325.048 350.428 323.574 350.428 325.341 350.428C327.281 350.428 328.262 351.494 329.797 352.646C332.44 354.628 335.416 355.566 335.615 359.341C335.684 360.66 335.894 363.886 334.122 364.259C330.388 365.045 326.777 365.444 322.97 365.444" stroke="black" stroke-width="3" stroke-linecap="round"/>
</svg>
