<svg width="564" height="826" viewBox="0 0 564 826" fill="none" xmlns="http://www.w3.org/2000/svg">
<rect width="564" height="826" rx="16" fill="#E2E8F0"/>
<path d="M68.115 101.749C64.2771 105.694 55.7481 115.15 59.6929 121.668C61.5322 124.707 70.5677 123.225 73.1281 122.537C76.8985 121.524 81.6263 119.421 84.4911 116.655C88.61 112.678 89.5496 103.292 85.4269 98.875C84.3119 97.6804 82.0584 98.1398 80.6143 98.1398C76.0468 98.1398 71.4793 98.1398 66.9118 98.1398" stroke="black" stroke-width="3" stroke-linecap="round"/>
<path d="M114.436 86.1084C112.189 104.622 112.03 122.851 112.03 141.453" stroke="black" stroke-width="3" stroke-linecap="round"/>
<path d="M140.905 83.1006C140.588 92.1409 139.612 101.035 139.702 110.105C139.75 114.955 140.663 115.301 145.317 114.85C149.784 114.418 155.897 112.157 158.084 107.899C160.751 102.703 158.952 93.7026 158.952 87.9132" stroke="black" stroke-width="3" stroke-linecap="round"/>
<path d="M141.507 99.343C156.756 99.343 171.993 99.9446 187.226 99.9446" stroke="black" stroke-width="3" stroke-linecap="round"/>
<path d="M187.828 87.9131V113.179" stroke="black" stroke-width="3" stroke-linecap="round"/>
<path d="M204.672 89.1162C206.478 94.2935 205.298 100.443 205.274 105.827C205.248 111.486 205.274 117.145 205.274 122.804" stroke="black" stroke-width="3" stroke-linecap="round"/>
<path d="M178.203 126.414C178.715 132.045 181.787 139.558 188.196 140.183C192.468 140.6 196.675 139.369 200.795 138.445C204.383 137.641 208.514 137.39 211.891 136.039" stroke="black" stroke-width="3" stroke-linecap="round"/>
<path d="M224.524 90.3194C230.758 88.5227 237.692 85.3523 244.309 84.9387C246.359 84.8106 249.817 84.0855 246.782 86.1084" stroke="black" stroke-width="3" stroke-linecap="round"/>
<path d="M227.532 101.148C235.313 99.7362 243.34 98.8526 251.027 96.9702C253.369 96.3967 253.554 96.2327 251.595 97.5384" stroke="black" stroke-width="3" stroke-linecap="round"/>
<path d="M235.352 102.952C234.758 107.264 233.356 110.805 238.494 111.976C242.122 112.803 246.807 113.171 250.392 111.976" stroke="black" stroke-width="3" stroke-linecap="round"/>
<path d="M231.141 140.25C245.654 136.693 260.793 136.43 275.658 136.039" stroke="black" stroke-width="3" stroke-linecap="round"/>
<path d="M303.33 92.124C305.836 90.4535 317.189 82.6716 315.596 90.2859C314.247 96.7316 310.847 103.759 306.94 108.968" stroke="black" stroke-width="3" stroke-linecap="round"/>
<path d="M315.362 98.7415C318.229 98.8403 321.957 99.3847 324.352 101.181C325.538 102.07 326.437 102.952 327.995 102.952" stroke="black" stroke-width="3" stroke-linecap="round"/>
<path d="M305.737 75.28C309.307 76.9601 313.442 80.3645 317.166 81.2958" stroke="black" stroke-width="3" stroke-linecap="round"/>
<path d="M317.768 119.797C318.878 123.249 319.576 127.109 321.11 130.358C321.983 132.206 321.703 134.283 322.581 136.039" stroke="black" stroke-width="3" stroke-linecap="round"/>
<path d="M310.549 136.039C319.389 137.162 328.692 136.641 337.62 136.641" stroke="black" stroke-width="3" stroke-linecap="round"/>
<path d="M346.644 99.9446C354.002 98.5966 361.008 98.5801 368.3 97.5383" stroke="black" stroke-width="3" stroke-linecap="round"/>
<path d="M351.456 100.546C351.456 103.143 350.222 113.156 353.595 114.382C360.243 116.8 367.352 114.698 373.714 112.578" stroke="black" stroke-width="3" stroke-linecap="round"/>
<path d="M384.543 90.3193V124.007" stroke="black" stroke-width="3" stroke-linecap="round"/>
<path d="M386.949 108.968C390.095 107.44 393.181 107.127 396.574 106.562" stroke="black" stroke-width="3" stroke-linecap="round"/>
<path d="M398.379 81.2959V130.625" stroke="black" stroke-width="3" stroke-linecap="round"/>
<path d="M412.215 88.5146C415.556 87.1024 419.202 84.8492 422.91 84.4372C424.668 84.2419 423.016 94.8147 422.776 95.7335C421.421 100.928 417.486 105.188 415.825 110.171" stroke="black" stroke-width="3" stroke-linecap="round"/>
<path d="M425.45 97.5383C428.783 97.9928 432.778 100.011 435.676 101.749" stroke="black" stroke-width="3" stroke-linecap="round"/>
<path d="M444.099 83.7021C444.548 90.45 447.652 98.0215 450.081 104.256C451.74 108.514 452.913 113.363 454.927 117.39" stroke="black" stroke-width="3" stroke-linecap="round"/>
<path d="M452.521 99.9446C457.733 98.6044 463.381 96.3352 468.763 96.3352" stroke="black" stroke-width="3" stroke-linecap="round"/>
<path d="M439.286 125.211C432.927 125.34 429.541 130.386 430.931 136.641C431.862 140.831 441.395 141.907 444.6 142.322C447.977 142.76 450.51 142.862 452.988 140.384C455.434 137.939 454.006 132.907 451.585 130.926C448.029 128.016 442.456 128.327 438.684 125.812" stroke="black" stroke-width="3" stroke-linecap="round"/>
<path d="M61.3585 199.158C53.9356 203.598 46.4229 207.906 39.0375 212.408C38.4304 212.778 37.6288 213.212 37.1132 213.727C36.1463 214.694 32.5123 216.131 33.7871 217.328C38.0271 221.311 44.046 224.512 49.016 227.582C51.7074 229.244 54.2135 231.19 56.9053 232.805" stroke="black" stroke-width="2" stroke-linecap="round"/>
<path d="M505 197C512.199 201.487 519.485 205.84 526.648 210.389C527.237 210.763 528.014 211.201 528.514 211.722C529.452 212.699 532.976 214.151 531.74 215.361C527.628 219.386 521.79 222.62 516.97 225.722C514.36 227.402 511.93 229.368 509.319 231" stroke="black" stroke-width="2" stroke-linecap="round"/>
<path d="M78.1816 207.57C79.0682 205.974 80.173 205.021 82.0301 205.096C83.6293 205.16 82.1941 209.743 81.8377 210.566C80.9295 212.662 78.9087 216.137 77.2195 217.686C76.5774 218.274 74.876 219.821 76.6972 218.455" stroke="black" stroke-width="2" stroke-linecap="round"/>
<path d="M80.6558 213.507C83.1438 215.107 86.224 216.138 88.0778 218.455" stroke="black" stroke-width="2" stroke-linecap="round"/>
<path d="M90.5518 212.518C94.0775 210.931 98.6054 210.186 102.427 209.549" stroke="black" stroke-width="2" stroke-linecap="round"/>
<path d="M103.416 205.096C103.416 208.953 103.416 212.811 103.416 216.669C103.416 217.741 103.302 224.07 104.406 222.414" stroke="black" stroke-width="2" stroke-linecap="round"/>
<path d="M111.828 206.58C111.828 212.993 113.807 219.06 113.807 225.383" stroke="black" stroke-width="2" stroke-linecap="round"/>
<path d="M159 198C160.727 199.775 162.29 201.688 164.36 203.085C165.261 203.693 166.085 203.917 166.422 204.927" stroke="black" stroke-width="2" stroke-linecap="round"/>
<path d="M155 208.683C156.345 208.081 164.984 205.154 164.291 208.793C164.125 209.668 162.086 215.894 163.274 216.077C165.104 216.359 171.328 215.722 171.328 212.889C171.328 210.976 167.901 210.167 166.38 210.167" stroke="black" stroke-width="2" stroke-linecap="round"/>
<path d="M166.569 216C165.718 218.66 166.074 221.637 166.074 224.412" stroke="black" stroke-width="2" stroke-linecap="round"/>
<path d="M160 225.99C163.309 225.702 166.576 225.495 169.896 225.495C171.349 225.495 172.581 225.637 173.854 225" stroke="black" stroke-width="2" stroke-linecap="round"/>
<path d="M219.917 205C217.713 211.148 213.278 216.915 212 223.308" stroke="black" stroke-width="2" stroke-linecap="round"/>
<path d="M215.958 213.507C217.023 215.423 219.29 217.751 221.401 218.455" stroke="black" stroke-width="2" stroke-linecap="round"/>
<path d="M226.844 209.549C225.492 212.929 224.115 216.382 223.106 219.885C222.722 221.216 222.617 223.108 223.38 220.434" stroke="black" stroke-width="2" stroke-linecap="round"/>
<path d="M224.37 216.971C227.269 217.385 229.561 219.751 231.792 221.424" stroke="black" stroke-width="2" stroke-linecap="round"/>
<path d="M237.235 206.58C238.063 213.623 238.327 220.452 239.709 227.362" stroke="black" stroke-width="2" stroke-linecap="round"/>
<path d="M239.709 218.455C242.058 218.455 244.306 217.96 246.636 217.96" stroke="black" stroke-width="2" stroke-linecap="round"/>
<path d="M249.605 212.023C254.893 211.382 260.111 211.033 265.439 211.033" stroke="black" stroke-width="2" stroke-linecap="round"/>
<path d="M260.49 213.507V220.435" stroke="black" stroke-width="2" stroke-linecap="round"/>
<path d="M264.944 214.002V221.424" stroke="black" stroke-width="2" stroke-linecap="round"/>
<path d="M252.935 223H266.79" stroke="black" stroke-width="2" stroke-linecap="round"/>
<path d="M275.121 206C275.121 211.076 275.121 216.153 275.121 221.229C275.121 222.093 274.466 229.656 275.616 226.782" stroke="black" stroke-width="2" stroke-linecap="round"/>
<path d="M289.046 210.767C289.514 214.691 290.361 218.517 290.848 222.408C291.188 225.13 294.03 224.905 296.172 224.534C298.329 224.161 298.881 219.04 299.391 217.509C299.986 215.723 301.072 213.023 301.072 211.132" stroke="black" stroke-width="2" stroke-linecap="round"/>
<path d="M291.232 219.878C293.39 219.878 295.475 219.149 297.691 219.149C298.053 219.149 300.29 219.149 299.978 219.149" stroke="black" stroke-width="2" stroke-linecap="round"/>
<path d="M351.653 209C350.231 211.41 348.596 213.6 346.875 215.802C346.15 216.73 346.191 217.52 345.66 218.394C345.255 219.06 344.682 219.956 344 220.297" stroke="black" stroke-width="2" stroke-linecap="round"/>
<path d="M349.466 215.776C350.828 217.711 353.572 221.242 356.026 221.242" stroke="black" stroke-width="2" stroke-linecap="round"/>
<path d="M365.022 205C365.022 212.229 364.869 219.456 365.366 226.662C365.474 228.222 365.751 229.662 365.751 231.238" stroke="black" stroke-width="2" stroke-linecap="round"/>
<path d="M365.751 219.149C368.501 218.296 371.289 218.42 374.133 218.42" stroke="black" stroke-width="2" stroke-linecap="round"/>
<path d="M388.195 206.915C386.536 208.626 385.364 210.995 384.267 213.11C383.519 214.553 382.511 215.949 382 217.483" stroke="black" stroke-width="2" stroke-linecap="round"/>
<path d="M386.737 211.288C389.727 212.866 393.14 215.14 395.483 217.483" stroke="black" stroke-width="2" stroke-linecap="round"/>
<path d="M398.763 204C398.763 209.593 399.492 226.356 399.492 220.763" stroke="black" stroke-width="2" stroke-linecap="round"/>
<path d="M399.492 212.381C401.24 212.289 402.802 211.653 404.594 211.653" stroke="black" stroke-width="2" stroke-linecap="round"/>
<path d="M406.051 204.364C406.051 208.867 405.905 213.247 406.76 217.665C407.105 219.45 407.145 221.138 407.145 222.949" stroke="black" stroke-width="2" stroke-linecap="round"/>
<path d="M400.221 227.323C398.146 229.397 395.585 233.473 397.488 236.433C399.345 239.322 402.835 237.809 404.675 235.785C405.93 234.404 407.659 232.125 406.74 230.056C406.031 228.461 402.793 227.323 401.314 227.323" stroke="black" stroke-width="2" stroke-linecap="round"/>
<path d="M417 212.56H426.839" stroke="black" stroke-width="2" stroke-linecap="round"/>
<path d="M421.009 213.653C421.009 216.184 419.984 220.624 422.669 222.115C424.844 223.324 426.951 220.923 429.026 220.577" stroke="black" stroke-width="2" stroke-linecap="round"/>
<path d="M434.856 209.28C434.995 212.061 436.016 214.779 436.233 217.58C436.469 220.62 436.314 223.724 436.314 226.772" stroke="black" stroke-width="2" stroke-linecap="round"/>
<path d="M436.314 216.932C438.231 216.319 440.341 216.561 442.145 215.839" stroke="black" stroke-width="2" stroke-linecap="round"/>
<path d="M443.602 206C443.602 213.47 443.041 221.445 445.424 228.594" stroke="black" stroke-width="2" stroke-linecap="round"/>
<path d="M457.729 202C458.638 203.011 460.28 204.983 460.28 206.373" stroke="black" stroke-width="2" stroke-linecap="round"/>
<path d="M457 207.831C459.038 207.831 463.195 207.835 463.195 210.908C463.195 213.673 459.513 217.037 460.685 219.674C461.19 220.811 464.983 220.257 466.029 220.221C468.181 220.147 469.359 218.238 470.119 216.577C471.678 213.167 465.669 212.242 463.559 211.475" stroke="black" stroke-width="2" stroke-linecap="round"/>
<path d="M466.839 221.314C466.924 223.105 467.568 224.799 467.568 226.598C467.568 227.65 467.341 228.808 467.932 229.696" stroke="black" stroke-width="2" stroke-linecap="round"/>
<path d="M462.25 231.696C467.958 231.501 473.434 229.696 479.25 229.696" stroke="black" stroke-width="2" stroke-linecap="round"/>
<path d="M478 204C478 209.792 479.169 215.62 479.741 221.411C480.17 225.755 479.822 230.245 479.822 234.611" stroke="black" stroke-width="2" stroke-linecap="round"/>
<path d="M312.4 206.771C311.572 210.305 310.523 213.892 310.14 217.514C309.854 220.221 309.706 222.957 309.492 225.673C309.369 227.23 309.117 228.741 309.117 230.304" stroke="black" stroke-width="2" stroke-linecap="round"/>
<path d="M311.488 218.446C312.37 217.805 314.627 218.264 315.623 218.264C316.384 218.264 317.147 218.324 317.873 218.082" stroke="black" stroke-width="2" stroke-linecap="round"/>
<path d="M320.111 206C319.078 210.085 318.752 214.246 317.992 218.39C317.435 221.426 316.765 224.557 316.507 227.643C316.421 228.676 316.501 229.757 316.501 230.793" stroke="black" stroke-width="2" stroke-linecap="round"/>
<path d="M132.66 191.986C132.599 193.558 131.384 195.308 130.551 196.604C130.188 197.169 129.804 197.931 129.246 198.21" stroke="black" stroke-width="3" stroke-linecap="round"/>
<path d="M133.373 191.803C133.373 196.922 133.131 202.325 134.061 207.374C134.434 209.399 133.973 211.508 134.272 213.545C134.545 215.402 134.572 217.462 134.572 219.338C134.572 225.409 134.572 231.48 134.572 237.551" stroke="black" stroke-width="3" stroke-linecap="round"/>
<path d="M180.344 200.775C180.302 203.213 179.897 205.622 179.797 208.051C179.603 212.795 179.546 217.602 179.683 222.35C179.753 224.782 179.736 227.209 179.976 229.627C180.043 230.307 180.001 231.004 180.001 231.687" stroke="black" stroke-width="2" stroke-linecap="round"/>
<path d="M77.6772 339.032C79.9848 338.34 92.8365 334.672 93.5111 338.495C94.6644 345.03 92.6523 351.798 92.6523 358.355" stroke="black" stroke-width="3" stroke-linecap="round"/>
<path d="M104.054 325.699C104.578 330.478 105.144 335.64 105.687 340.594C106.356 346.699 107.025 352.804 107.694 358.909C108.407 365.419 109.116 371.888 109.828 378.384" stroke="black" stroke-width="3" stroke-linecap="round"/>
<path d="M124.535 337.583C125.806 335.816 128.634 334.327 130.815 334.04C132.8 333.779 133.166 337.194 133.257 338.415C133.62 343.319 133.713 348.117 133.713 353.041" stroke="black" stroke-width="3" stroke-linecap="round"/>
<path d="M149.654 328.887C148.819 337.879 148.205 364.969 148.205 355.939" stroke="black" stroke-width="3" stroke-linecap="round"/>
<path d="M148.688 343.863C151.947 343 154.964 342.413 158.349 342.413" stroke="black" stroke-width="3" stroke-linecap="round"/>
<path d="M140.51 357.567C140.51 360.27 141.254 364.813 144.67 364.813C146.836 364.813 148.35 364.418 150.439 363.954C153.085 363.366 155.781 363.531 158.383 362.88" stroke="black" stroke-width="3" stroke-linecap="round"/>
<path d="M89.7539 445.79V461.248" stroke="black" stroke-width="3" stroke-linecap="round"/>
<path d="M108.11 445.307C107.198 450.78 106.542 458.769 102.985 463.422C102.02 464.683 96.8599 472.368 95.5507 471.526C93.6601 470.311 94.0222 462.557 94.7993 460.657C96.445 456.635 104.63 457.48 108.11 456.9" stroke="black" stroke-width="3" stroke-linecap="round"/>
<path d="M101.347 472.842V486.851" stroke="black" stroke-width="3" stroke-linecap="round"/>
<path d="M91.2031 491.198C100.002 490.011 108.717 488.755 117.289 486.851" stroke="black" stroke-width="3" stroke-linecap="round"/>
<path d="M136.611 446.756C130.618 452.939 126.513 459.897 121.717 466.964C121.313 467.559 118.137 473.428 118.738 470.426" stroke="black" stroke-width="3" stroke-linecap="round"/>
<path d="M127.433 458.833C130.924 462.11 134.478 465.294 138.034 468.494C138.716 469.109 139.12 469.646 139.51 470.426" stroke="black" stroke-width="3" stroke-linecap="round"/>
<path d="M154.968 449.959C154.968 461.312 156.417 472.452 156.417 483.774" stroke="black" stroke-width="3" stroke-linecap="round"/>
<path d="M156.417 462.697C158.811 461.997 161.218 461.37 163.636 460.765C165 460.424 164.857 460.201 165.112 461.731" stroke="black" stroke-width="3" stroke-linecap="round"/>
<path d="M153.103 485.368C148.986 487.8 144.408 489.988 144.408 495.405C144.408 499.958 149.053 499.603 151.896 497.686C155.716 495.109 156.485 493.967 156.485 489.178C156.485 486.157 156.747 484.885 153.586 484.885" stroke="black" stroke-width="3" stroke-linecap="round"/>
<path d="M85.4229 578.363C91.1526 575.421 96.7517 572.539 102.935 570.705C105.187 570.037 103.908 572.247 103.39 573.624C101.46 578.755 98.3964 582.934 94.9793 587.166C93.4655 589.041 90.915 591.827 90.2246 593.898" stroke="black" stroke-width="3" stroke-linecap="round"/>
<path d="M101.805 582.6C107.077 585.891 112.547 588.795 117.905 591.921" stroke="black" stroke-width="3" stroke-linecap="round"/>
<path d="M100.958 601.807C101.399 606.727 101.828 611.661 102.496 616.557C102.634 617.572 102.935 618.574 102.935 619.602" stroke="black" stroke-width="3" stroke-linecap="round"/>
<path d="M90.7896 623.274C98.226 621.13 105.731 619.695 113.292 618.095C115.578 617.612 117.943 617.235 120.165 616.495" stroke="black" stroke-width="3" stroke-linecap="round"/>
<path d="M124.402 582.6C126.494 580.508 129.665 578.346 132.468 577.359C134.051 576.801 133.899 578.628 134.005 579.744C134.564 585.59 134.853 591.692 134.853 597.57" stroke="black" stroke-width="3" stroke-linecap="round"/>
<path d="M139.655 586.837C146.607 585.957 153.37 585.445 160.274 584.294" stroke="black" stroke-width="3" stroke-linecap="round"/>
<path d="M161.686 568.194V596.44" stroke="black" stroke-width="3" stroke-linecap="round"/>
<path d="M153.044 596.173C154.592 602.405 155.961 608.708 157.626 614.91C157.743 615.344 157.987 616.385 158.599 616.447C161.898 616.782 165.642 615.855 168.925 615.631C172.108 615.415 175.278 615.38 178.465 615.38" stroke="black" stroke-width="3" stroke-linecap="round"/>
<path d="M220.861 350.808C223.151 346.687 227.027 342.802 231.781 341.763C234.064 341.263 236.314 343.748 237.335 345.559C239.489 349.381 236.719 355.612 234.944 359.033C233.362 362.082 231.161 364.648 228.453 366.742C228.218 366.924 223.902 369.904 224.095 370.117C224.832 370.928 230.408 370.211 231.265 370.211C237.799 370.211 244.286 370.314 250.809 370.632" stroke="black" stroke-width="2" stroke-linecap="round"/>
<path d="M251.652 339.841C251.652 344.601 251.391 349.461 251.887 354.206C252.025 355.525 252.496 356.861 252.496 358.189C252.496 358.857 264.51 357.998 265.759 358.072C266.827 358.136 269.446 358.233 269.696 359.736C270.167 362.563 267.466 367.446 266.158 369.789C263.822 373.972 258.76 376.305 254.183 376.959" stroke="black" stroke-width="2" stroke-linecap="round"/>
<path d="M252.918 349.964C258.534 348.73 264.193 347.871 269.883 347.058C270.319 346.996 273.169 347.001 273.586 346.168" stroke="black" stroke-width="2" stroke-linecap="round"/>
<path d="M282.444 370.211C284.004 368.839 285.747 367.925 287.505 366.836" stroke="black" stroke-width="2" stroke-linecap="round"/>
<path d="M302.268 347.011C300.965 350.302 297.159 361.547 304.143 362.196C307.152 362.476 314.14 362.084 315.906 359.033C317.84 355.693 313.573 351.748 311.735 349.542C309.47 346.824 304.939 347.743 301.846 347.433" stroke="black" stroke-width="2" stroke-linecap="round"/>
<path d="M318.718 336.888C320.269 342.964 321.307 350.262 324.061 356.01C324.766 357.481 325.928 357.271 327.248 356.924C332.389 355.571 339.307 360.612 343.042 363.391C346.954 366.303 349.257 368.581 345.667 372.46C343.694 374.591 341.569 376.688 338.965 378.037C337.066 379.021 336.868 378.704 335.59 378.225" stroke="black" stroke-width="2" stroke-linecap="round"/>
<path d="M322.514 347.011C328.082 345.727 333.449 344.172 338.965 342.793" stroke="black" stroke-width="2" stroke-linecap="round"/>
<path d="M363.851 362.196C362.752 363.295 361.743 364.303 360.898 365.571" stroke="black" stroke-width="2" stroke-linecap="round"/>
<path d="M376.505 344.903C375.561 347.499 371.107 354.238 375.52 355.822C377.244 356.441 380.62 357.578 382.504 357.064C386.709 355.918 389.655 354.64 389.135 349.964C388.693 345.989 384.215 346.286 381.285 345.418C379.578 344.912 377.009 345.324 375.239 345.324" stroke="black" stroke-width="2" stroke-linecap="round"/>
<path d="M406.031 342.794C405.3 340.895 403.538 335.295 400.524 335.295C398.346 335.295 396.957 337.992 396.775 339.818C396.61 341.462 397.225 343.354 398.251 344.621C399.305 345.923 401.474 345.235 402.844 344.903C404.044 344.611 405.257 344.371 406.452 344.059C406.783 343.973 408.14 343.322 408.14 343.59C408.14 347.282 408.222 350.984 408.116 354.674C407.941 360.824 406.874 367.041 406.874 373.163" stroke="black" stroke-width="2" stroke-linecap="round"/>
<path d="M444.836 336.888C440.732 341.646 434.109 349.01 437.103 356.104C439.468 361.708 446.067 366.242 452.007 366.836" stroke="black" stroke-width="2" stroke-linecap="round"/>
<path d="M466.348 330.983C471.683 329.931 477.068 328.956 482.47 328.312C485.864 327.907 486.524 328.211 486.079 331.499C485.738 334.011 484.907 336.45 484.907 338.997" stroke="black" stroke-width="2" stroke-linecap="round"/>
<path d="M469.301 346.168C474.017 345.423 478.537 343.403 483.173 342.278C484.995 341.836 486.93 341.698 488.703 341.106" stroke="black" stroke-width="2" stroke-linecap="round"/>
<path d="M475.627 357.135C475.627 360.265 475.367 363.468 475.955 366.555C476.043 367.013 475.822 368.115 476.494 368.008C480.116 367.428 484.169 366.755 487.672 365.664C490.84 364.678 490.637 359.508 490.765 356.783C490.882 354.291 491.594 350.176 490.742 347.761C490.573 347.283 486.979 348.679 486.5 348.792C481.658 349.937 476.71 351.532 472.253 353.76" stroke="black" stroke-width="2" stroke-linecap="round"/>
<path d="M503.888 329.296C508.703 329.914 517.039 329.824 520.9 333.608C521.955 334.641 521.825 337.224 521.932 338.575C522.244 342.546 519.692 345.547 517.198 348.371C515.392 350.415 512.822 351.982 510.543 353.432C509.165 354.309 508.087 355.573 506.7 356.432C505.451 357.205 507.537 354.414 507.684 354.182" stroke="black" stroke-width="2" stroke-linecap="round"/>
<path d="M354.149 398.471C354.511 403.82 354.993 409.069 354.993 414.429C354.993 417.145 354.416 420.439 355.415 422.935" stroke="black" stroke-width="3" stroke-linecap="round"/>
<path d="M365.116 399.315C366.607 397.824 367.857 397.088 369.92 396.385C373.494 395.169 373.552 400.091 373.552 402.83C373.552 407.618 372.05 410.555 369.147 414.265C367.823 415.957 366.25 417.41 364.929 419.092C364.409 419.753 364.362 419.561 365.444 419.561C367.975 419.561 370.506 419.561 373.037 419.561C375.925 419.561 378.724 419.139 381.566 419.139" stroke="black" stroke-width="3" stroke-linecap="round"/>
<path d="M394.642 406.063C399.486 405.833 404.149 402.689 408.983 402.689" stroke="black" stroke-width="3" stroke-linecap="round"/>
<path d="M423.324 390.035V414.499" stroke="black" stroke-width="3" stroke-linecap="round"/>
<path d="M439.774 407.329C436.736 403.986 430.7 399.413 432.276 394.159C432.981 391.808 434.856 389.305 437.525 389.191C439.884 389.091 440.326 389.599 440.149 392.027C439.899 395.477 438.641 398.588 437.337 401.752C435.238 406.846 432.407 412.645 434.385 418.342C435.453 421.418 438.177 423.031 441.321 421.529C450.185 417.297 447.284 406.682 438.509 405.22" stroke="black" stroke-width="3" stroke-linecap="round"/>
<path d="M457.49 400.158C458.333 406.549 459.179 412.842 460.255 419.186C460.604 421.24 460.864 423.38 460.864 425.466" stroke="black" stroke-width="3" stroke-linecap="round"/>
<path d="M458.334 401.002C460.886 399.211 462.112 398.735 465.27 399.643C469.546 400.871 468.687 403.535 466.817 406.766C465.667 408.751 464.505 411.51 462.552 412.812" stroke="black" stroke-width="3" stroke-linecap="round"/>
<path d="M474.362 397.206C474.362 400.799 474.594 404.313 474.76 407.891C474.854 409.901 474.784 411.356 474.784 408.36C474.784 406.168 476.633 395.924 479.658 400.51C481.052 402.623 480.887 405.29 482.189 407.282C482.5 407.757 482.841 406.344 483.079 405.829C483.921 404.011 484.84 402.239 485.891 400.533C488.694 395.986 491.067 407.765 491.234 409.438" stroke="black" stroke-width="3" stroke-linecap="round"/>
<path d="M222.324 468.25C230.172 467.151 237.771 466.581 245.689 466.581C247.348 466.581 249.007 466.581 250.665 466.581C251.228 466.581 251.043 466.581 250.696 466.581" stroke="black" stroke-width="2" stroke-linecap="round"/>
<path d="M240.682 468.806C240.083 472.779 240.311 477.012 240.435 481.014C240.49 482.796 240.961 484.562 240.961 486.33" stroke="black" stroke-width="2" stroke-linecap="round"/>
<path d="M258.485 475.482C257.285 476.489 254.254 478.64 255.301 480.736C255.828 481.789 259.567 480.799 260.247 480.489C261.506 479.913 262.602 478.715 262.874 477.336C263.063 476.372 262.247 476.575 261.529 476.455C260.986 476.365 257.362 476.412 258.485 476.038" stroke="black" stroke-width="2" stroke-linecap="round"/>
<path d="M269.333 471.865C269.783 476.976 270.022 482.156 270.847 487.226C271.116 488.873 271.002 487.835 271.002 486.886" stroke="black" stroke-width="2" stroke-linecap="round"/>
<path d="M270.167 476.316C270.905 475.516 275.457 469.951 275.978 474.245C276.295 476.862 273.705 478.421 272.671 480.489" stroke="black" stroke-width="2" stroke-linecap="round"/>
<path d="M302.434 458.792C302.434 462.388 301.972 466.358 303.021 469.857C303.463 471.329 304.225 472.817 304.366 474.369C304.497 475.811 305.695 474.835 306.514 474.354C308.019 473.468 309.507 472.978 311.258 472.978C312.022 472.978 312.197 473.575 312.324 474.276C312.813 476.979 311.796 478.68 309.45 480.118C305.041 482.819 299.906 484.294 294.769 484.599C293.103 484.698 292.42 484.935 292.42 483.27" stroke="black" stroke-width="2" stroke-linecap="round"/>
<path d="M292.977 468.806C301.69 467.235 310.517 465.468 319.402 465.468" stroke="black" stroke-width="2" stroke-linecap="round"/>
<path d="M281.574 509.21C281.962 513.439 281.833 519.324 284.34 523.085C284.624 523.51 285.39 523.381 285.806 523.381C287.478 523.381 289.151 523.381 290.824 523.381C292.483 523.381 291.82 519.101 291.808 517.936C291.771 514.235 291.218 510.547 291.218 506.849" stroke="black" stroke-width="2" stroke-linecap="round"/>
<path d="M282.165 515.902H291.808" stroke="black" stroke-width="2" stroke-linecap="round"/>
<path d="M301.255 505.274C301.117 511.316 301.165 517.347 301.452 523.381" stroke="black" stroke-width="2" stroke-linecap="round"/>
<path d="M301.452 513.934C304.45 512.832 307.592 512.391 310.702 511.769" stroke="black" stroke-width="2" stroke-linecap="round"/>
<path d="M308.702 504.487C308.334 510.699 308.48 516.782 308.702 522.987" stroke="black" stroke-width="2" stroke-linecap="round"/>
<path d="M308.144 528.301C306.129 531.163 303.944 534.304 302.042 537.157" stroke="black" stroke-width="2" stroke-linecap="round"/>
<path d="M304.16 530.647C306.334 532.178 308.888 533.567 310.458 535.764" stroke="black" stroke-width="2" stroke-linecap="round"/>
<path d="M317.394 518.657C318.494 517.789 319.852 516.47 321.341 516.328C321.747 516.29 321.496 518.897 321.472 519.127C321.198 521.759 319.955 524.314 318.64 526.573C318.418 526.955 317.066 528.334 317.394 528.498" stroke="black" stroke-width="2" stroke-linecap="round"/>
<path d="M320.149 523.184L328.415 529.088" stroke="black" stroke-width="2" stroke-linecap="round"/>
<path d="M336.484 505.471C336.499 511.499 336.375 517.485 337.446 523.435C337.605 524.318 337.862 525.232 337.862 526.136" stroke="black" stroke-width="2" stroke-linecap="round"/>
<path d="M363.841 519.051C370.45 518.025 377.234 517.87 383.915 517.87" stroke="black" stroke-width="2" stroke-linecap="round"/>
<path d="M374.272 508.03C373.729 514.473 373.352 521.276 374.272 527.71" stroke="black" stroke-width="2" stroke-linecap="round"/>
<path d="M408.91 495.04C409.547 494.763 417.6 490.481 418.116 492.219C418.432 493.283 418.331 494.634 418.346 495.718C418.38 498.173 418.335 500.628 418.138 503.076C417.962 505.259 417.57 507.444 417.57 509.637C417.57 510.859 417.57 512.069 417.57 509.998" stroke="black" stroke-width="2" stroke-linecap="round"/>
<path d="M411.075 505.471C413.369 504.229 415.76 503.31 418.16 502.322" stroke="black" stroke-width="2" stroke-linecap="round"/>
<path d="M426.229 490.907C426.229 497.262 426.057 503.527 426.929 509.823C427.01 510.407 427.016 510.985 427.016 511.572" stroke="black" stroke-width="2" stroke-linecap="round"/>
<path d="M426.82 506.455C430.461 504.73 434.088 502.844 437.885 501.469C438.36 501.297 438.664 501.213 439.022 500.944" stroke="black" stroke-width="2" stroke-linecap="round"/>
<path d="M440.006 493.662C443.787 491.412 447.926 489.702 451.814 487.758" stroke="black" stroke-width="2" stroke-linecap="round"/>
<path d="M443.745 493.663C445.663 493.515 447.528 492.853 449.453 492.678" stroke="black" stroke-width="2" stroke-linecap="round"/>
<path d="M443.548 494.646C443.423 495.131 442.837 496.301 443.592 496.615C444.892 497.155 446.821 496.923 448.184 496.964C449.263 496.998 450.342 497.008 451.421 497.008" stroke="black" stroke-width="2" stroke-linecap="round"/>
<path d="M449.65 498.386C449.65 500.723 449.509 503.003 450.043 505.274" stroke="black" stroke-width="2" stroke-linecap="round"/>
<path d="M440.793 506.652C445.845 506.203 450.703 504.598 455.75 504.093" stroke="black" stroke-width="2" stroke-linecap="round"/>
<path d="M448.469 511.178C450.449 510.652 452.445 510.164 454.439 509.691C455.285 509.491 456.227 509.196 457.106 509.177C457.926 509.16 457.719 510.177 457.719 510.73C457.719 512.848 457.719 514.965 457.719 517.083" stroke="black" stroke-width="2" stroke-linecap="round"/>
<path d="M411.665 540.503C410.552 542.709 409.75 545.041 409.304 547.479C409.077 548.715 408.964 549.909 410.178 550.606C412.62 552.007 416.644 550.453 418.466 548.66C419.811 547.336 420.645 545.231 419.188 543.685C418.604 543.065 417.832 542.525 417.034 542.22C416.512 542.02 416.451 542.126 416.782 541.684" stroke="black" stroke-width="2" stroke-linecap="round"/>
<path d="M429.772 536.764C429.527 543.096 429.575 549.342 429.575 555.657" stroke="black" stroke-width="2" stroke-linecap="round"/>
<path d="M435.676 536.173C436.106 537.776 436.857 539.598 436.857 541.29" stroke="black" stroke-width="2" stroke-linecap="round"/>
<path d="M437.644 535.189C440.203 535.085 443.026 534.693 445.593 535.014C446.593 535.139 443.983 539.326 443.734 539.738C443.113 540.765 442.227 542.971 440.946 543.411C440.389 543.603 439.609 543.455 439.022 543.455" stroke="black" stroke-width="2" stroke-linecap="round"/>
<path d="M445.517 543.455C445.323 546.246 444.971 548.999 445.713 551.721" stroke="black" stroke-width="2" stroke-linecap="round"/>
<path d="M439.809 554.673C444.108 554.204 448.297 552.85 452.47 551.765C453.457 551.508 454.344 551.328 455.357 551.328" stroke="black" stroke-width="2" stroke-linecap="round"/>
<path d="M454.963 537.944C457.21 536.527 459.503 535.18 461.83 533.899C462.564 533.495 463.365 532.969 464.213 532.827" stroke="black" stroke-width="2" stroke-linecap="round"/>
<path d="M456.144 541.881C459.313 541.247 462.295 539.955 465.504 539.453C465.729 539.418 468.512 538.949 467.953 539.322" stroke="black" stroke-width="2" stroke-linecap="round"/>
<path d="M459.293 541.094C459.403 543.27 458.684 547.069 461.906 546.549C463.224 546.337 464.342 545.542 465.657 545.314C466.662 545.139 467.724 545.227 468.74 545.227" stroke="black" stroke-width="2" stroke-linecap="round"/>
<path d="M474.448 531.253C474.416 539.126 474.251 546.996 474.251 554.87" stroke="black" stroke-width="2" stroke-linecap="round"/>
<path d="M482.91 532.827C484.474 531.54 485.872 530.498 487.765 529.788C488.898 529.363 488.848 529.486 489.099 530.706C489.963 534.909 490.532 539.201 491.963 543.258" stroke="black" stroke-width="2" stroke-linecap="round"/>
<path d="M483.107 538.535C484.583 537.775 486.328 536.764 488.027 536.764" stroke="black" stroke-width="2" stroke-linecap="round"/>
<path d="M485.469 542.668C485.469 545.427 485.666 548.175 485.666 550.934" stroke="black" stroke-width="2" stroke-linecap="round"/>
<path d="M478.384 550.934C484.061 551.305 489.842 551.563 495.506 550.934" stroke="black" stroke-width="2" stroke-linecap="round"/>
<path d="M487.24 554.477C487.603 555.981 487.962 557.487 488.366 558.981C488.4 559.105 488.506 559.834 488.749 559.943C489.667 560.358 491.305 559.539 492.16 559.331C494.35 558.8 496.785 558.019 499.049 558.019" stroke="black" stroke-width="2" stroke-linecap="round"/>
<path d="M230.12 602C229.03 606.932 227.912 611.818 226.511 616.667C226.161 617.879 226.198 618.28 226 616.896" stroke="black" stroke-width="2" stroke-linecap="round"/>
<path d="M230.12 602C230.936 604.675 231.749 607.339 232.726 609.959C232.91 610.453 233.365 612.689 233.994 612.882C234.754 613.114 236.711 611.307 237.198 610.945C238.903 609.679 240.436 608.229 241.812 606.613C241.915 606.492 243.576 604.264 243.661 604.307C243.957 604.455 243.139 608.848 243.115 609.043C242.6 613.237 241.881 617.444 241.53 621.65" stroke="black" stroke-width="2" stroke-linecap="round"/>
<path d="M251.989 605.803V617.213" stroke="black" stroke-width="2" stroke-linecap="round"/>
<path d="M254.208 603.585C256.63 605.497 258.535 607.302 260.159 609.924C260.526 610.516 260.781 611.148 261.11 611.755C261.269 612.048 264.5 609.004 264.579 608.938C264.897 608.67 268.528 605.031 268.981 606.455C269.605 608.417 269.131 611.34 269.069 613.357C268.988 615.96 268.758 618.549 268.505 621.14C268.411 622.106 268.47 620.549 268.47 620.383" stroke="black" stroke-width="2" stroke-linecap="round"/>
<path d="M283.049 606.437C282.379 607.166 275.888 612.548 279.387 613.41C283.236 614.358 286.995 612.774 289.776 610.117C293.297 606.752 286.626 607.071 284.634 607.071" stroke="black" stroke-width="2" stroke-linecap="round"/>
<path d="M282.099 622.284C286.028 622.083 290.005 620.552 293.843 619.766C297.957 618.924 302.15 618.366 306.186 617.213" stroke="black" stroke-width="2" stroke-linecap="round"/>
<path d="M301.115 605.803C301.573 605.623 308.562 602.448 308.704 604.007C308.958 606.798 306.558 608.435 305.552 610.734C305.32 611.264 306.699 610.916 307.278 610.945C309.72 611.065 312.157 611.178 314.603 611.191C316.129 611.2 320.707 611.191 319.181 611.191" stroke="black" stroke-width="2" stroke-linecap="round"/>
<path d="M317.279 611.825C317.279 615.199 317.253 618.35 317.913 621.65" stroke="black" stroke-width="2" stroke-linecap="round"/>
<path d="M308.722 624.186C314.51 624.022 320.367 623.552 326.153 623.552" stroke="black" stroke-width="2" stroke-linecap="round"/>
<path d="M305.976 640.813C303.774 646.848 301.442 652.865 299.532 659.002C299.354 659.574 298.959 660.661 299.003 661.415C299.141 663.749 300.518 656.989 301.222 654.759" stroke="black" stroke-width="2" stroke-linecap="round"/>
<path d="M303.44 648.737C306.324 651.621 309.492 654.389 311.998 657.611" stroke="black" stroke-width="2" stroke-linecap="round"/>
<path d="M300.271 668.704C305.532 668.464 310.851 668.07 316.118 668.07" stroke="black" stroke-width="2" stroke-linecap="round"/>
<path d="M319.604 652.857C322.217 651.614 324.616 650.712 327.493 650.392C328.079 650.327 329.298 650.102 329.87 650.357C330.515 650.644 330.064 654.773 330.064 655.287C330.064 658.08 330.166 660.85 330.38 663.633" stroke="black" stroke-width="2" stroke-linecap="round"/>
<path d="M322.14 658.562C326.619 657.735 330.927 657.611 335.452 657.611" stroke="black" stroke-width="2" stroke-linecap="round"/>
<path d="M322.457 668.387C326.656 668.387 330.673 668.345 334.818 667.753" stroke="black" stroke-width="2" stroke-linecap="round"/>
<path d="M340.523 650.322C342.798 649.166 346.402 646.602 348.869 648.772C349.924 649.701 349.836 651.422 349.327 652.611C348.436 654.69 344.445 656.42 344.326 658.562C344.207 660.71 348.785 659.186 349.961 658.949C351.381 658.663 354.785 658.562 354.785 656.66" stroke="black" stroke-width="2" stroke-linecap="round"/>
<path d="M358.588 645.25C357.826 651.155 357.954 657.061 357.954 662.999" stroke="black" stroke-width="2" stroke-linecap="round"/>
<path d="M194.124 460.311C195.595 460.801 196.37 465.253 196.639 466.6" stroke="black" stroke-width="2" stroke-linecap="round"/>
<path d="M197.897 477.919C197.99 480.236 198.296 482.531 198.526 484.837" stroke="black" stroke-width="2" stroke-linecap="round"/>
<path d="M352.883 667.437C353.372 668.975 353.736 670.98 354.609 672.384C355.187 673.314 357.386 672.456 358.095 672.279C361.569 671.41 364.931 670.158 368.413 669.338" stroke="black" stroke-width="2" stroke-linecap="round"/>
<path d="M375.069 645.568C372.27 648.727 369.051 651.899 367.146 655.71" stroke="black" stroke-width="2" stroke-linecap="round"/>
<path d="M191.609 339.569C191.862 341.847 192.866 343.358 192.866 345.858" stroke="black" stroke-width="2" stroke-linecap="round"/>
<path d="M370.315 650.005C372.466 651.714 374.451 654.603 377.288 655.076" stroke="black" stroke-width="2" stroke-linecap="round"/>
<path d="M193.495 358.435C193.566 359.141 193.864 359.671 194.124 360.322" stroke="black" stroke-width="2" stroke-linecap="round"/>
<path d="M381.725 641.13V659.513" stroke="black" stroke-width="2" stroke-linecap="round"/>
<path d="M381.725 650.322C383.59 650.035 386.142 649.222 387.747 648.42" stroke="black" stroke-width="2" stroke-linecap="round"/>
<path d="M383.627 654.125C387.482 654.125 391.463 653.062 395.354 652.857" stroke="black" stroke-width="2" stroke-linecap="round"/>
<path d="M389.015 659.83C387.191 662.986 384.276 665.337 382.359 668.405C382.048 668.902 382.01 669.639 381.408 669.338" stroke="black" stroke-width="2" stroke-linecap="round"/>
<path d="M385.211 663.95C388.118 666.038 390.985 668.283 394.174 669.937C394.598 670.157 394.885 670.289 395.354 670.289" stroke="black" stroke-width="2" stroke-linecap="round"/>
<path d="M412.468 647.152C412.695 649.502 412.17 652.223 415.145 652.223C417.301 652.223 419.148 651.701 420.656 650.005C421.82 648.695 419.548 646.812 418.349 646.589C416.941 646.326 412.621 646.518 414.053 646.518" stroke="black" stroke-width="2" stroke-linecap="round"/>
<path d="M427.365 644.934C428.053 649.093 429.214 653.178 429.9 657.294" stroke="black" stroke-width="2" stroke-linecap="round"/>
<path d="M418.173 661.731C418.88 664.25 419.209 668.957 422.646 669.021C424.714 669.059 427.103 668.676 428.949 667.753" stroke="black" stroke-width="2" stroke-linecap="round"/>
<path d="M434.02 642.715C434.99 642.364 440.822 640.245 442.226 639.757C443.043 639.473 443.895 638.809 444.726 639.053C445.087 639.158 444.601 642.263 444.585 642.363C444.183 644.896 443.074 647.205 442.578 649.688" stroke="black" stroke-width="2" stroke-linecap="round"/>
<path d="M443.529 645.25C446.541 645.439 449.399 646.562 452.403 646.835" stroke="black" stroke-width="2" stroke-linecap="round"/>
<path d="M439.408 660.147C446.508 657.62 453.634 654.918 461.137 653.878C462.113 653.743 463.968 653.498 464.447 652.54" stroke="black" stroke-width="2" stroke-linecap="round"/>
<path d="M453.988 661.098C452.575 662.569 450.105 664.615 451.522 666.873C453.025 669.266 456.652 670.16 458.636 668.176C459.763 667.049 462.208 665.204 460.168 663.792C458.925 662.931 457.017 662.836 455.572 662.559C453.773 662.214 454.371 662.365 455.889 662.365" stroke="black" stroke-width="2" stroke-linecap="round"/>
<path d="M199.277 603.419V616.518" stroke="black" stroke-width="2" stroke-linecap="round"/>
<path d="M194.24 646.745C194.24 653.176 193.317 660.012 196.255 665.888" stroke="black" stroke-width="2" stroke-linecap="round"/>
<path d="M460.591 208.345C463.521 208.345 466.492 207.674 469.25 206.846" stroke="black" stroke-width="2" stroke-linecap="round"/>
<path d="M52.3833 735.665C62.1044 734.693 70.9812 728.932 79.7058 725.021C85.3311 722.499 90.3609 718.979 89.8009 727.38C89.1194 737.603 84.2141 746.39 78.9377 754.977C78.6046 755.519 65.7987 778.762 66.4286 767.267C67.3468 750.509 73.1221 734.809 73.1221 717.889C73.1221 714.304 73.1221 710.72 73.1221 707.135C73.1221 706.404 72.8907 704.247 73.1221 704.941C74.1034 707.885 74.2231 711.637 75.0423 714.597C78.4483 726.902 84.7316 738.363 90.4592 749.71C92.1266 753.013 97.5916 759.568 97.5916 763.591C97.5916 766.268 92.6888 761.33 90.569 759.695C82.3863 753.386 73.7427 747.462 66.0994 740.493C62.1107 736.856 57.7385 734.455 52.3833 733.69" stroke="#F4E757" stroke-width="2" stroke-linecap="round"/>
<path d="M401.98 27.5839C406.392 29.2227 409.152 32.8377 413.611 34.6066C422.217 38.0204 430.409 42.3247 438.739 46.3476C439.591 46.7592 454.291 53.111 448.834 53.2605C441.855 53.4517 435.615 54.2362 428.754 55.7843C421.931 57.3235 416.491 60.4728 410.1 62.9166C407.178 64.0337 409.164 61.1359 409.99 60.0637C418.63 48.845 429.305 38.7321 435.776 26.0477C437.206 23.2457 437.953 22.2598 436.874 26.3769C434.795 34.3056 431.581 41.8868 430.07 49.9686C429.32 53.9827 428.691 58.0625 428.644 62.1485C428.626 63.6647 429.682 70.7825 428.424 71.9144C428.282 72.0425 419.724 63.4532 419.536 63.2458C414.743 57.9598 411.959 53.3675 411.855 46.2379C411.798 42.3141 409.88 39.2616 409.88 35.4844" stroke="#F4E757" stroke-width="2" stroke-linecap="round"/>
<path d="M45.8638 62.9443C45.7971 66.3488 44.7763 71.4178 41.1885 72.6137C38.399 73.5436 40.5134 73.4638 42.2776 73.4638C44.5785 73.4638 44.2706 75.8027 45.0138 77.289C45.4677 78.197 45.8452 79.2107 46.342 80.1048C47.2181 81.6818 46.6328 81.0246 47.2983 79.4939C48.0752 77.7069 47.885 75.9573 48.9984 74.2076C49.8264 72.9064 51.1453 73.0025 51.9205 71.7105C53.1973 69.5824 51.31 69.9547 49.45 68.9213C47.8861 68.0524 48.1968 65.7266 47.2983 64.3788" stroke="#F4E757" stroke-width="2" stroke-linecap="round"/>
<path d="M522.742 271.265C520.833 276.588 517.09 283.271 511.708 285.81C511.037 286.126 507.386 286.955 507.884 287.032C509.03 287.208 510.298 287.063 511.457 287.063C513.967 287.063 516.478 289.367 517.915 291.326C518.384 291.967 520.168 297.195 520.61 295.966C521.608 293.193 522.03 291.665 524.56 289.884C525.326 289.345 526.122 288.57 526.973 288.192C527.646 287.893 529.569 287.211 528.854 287.032C523.854 285.782 523.306 277.975 523.306 273.522" stroke="#F4E757" stroke-width="2" stroke-linecap="round"/>
<path d="M69.7716 518.627C70.5424 521.422 71.7909 528.789 67.9918 530.13C64.0151 531.533 68.3129 530.435 69.3466 531.856C70.6306 533.622 72.8462 534.51 73.7031 536.319C74.4479 537.891 75.0314 541.366 75.0314 541.366C75.0314 541.366 75.0314 538.639 75.0314 537.276C75.0314 534.386 77.0176 532.155 78.1128 529.652C79.1147 527.362 79.2389 527.234 76.6783 527.234C74.1379 527.234 71.6008 524.821 71.2061 522.453" stroke="#F4E757" stroke-width="2" stroke-linecap="round"/>
<path d="M435.557 748.503C440.289 740.569 446.733 737.895 453.717 732.263C455.687 730.674 457.645 729.169 459.752 727.764C461.672 726.484 465.201 721.637 465.513 723.924C466.097 728.207 459.058 737.841 457.283 741.151C455.108 745.206 452.695 749.512 450.26 753.441C448.864 755.694 445.372 761.647 444.664 759.092C441.804 748.763 442.434 733.44 444.555 722.991C445.017 720.711 453.007 732.401 454.101 733.799C459.332 740.486 463.897 747.359 468.256 754.648C470.307 758.078 475.993 768.476 474.895 764.633C473.918 761.215 468.27 757.99 465.403 756.623C457.473 752.841 450.814 746.827 443.073 742.578C437.887 739.73 433.085 738.688 427.656 736.652" stroke="#C0B648" stroke-width="2" stroke-linecap="round"/>
<path d="M115.587 24.6213C111.817 31.7026 107.889 38.538 103.737 45.3601" stroke="#C0B648" stroke-width="2" stroke-linecap="round"/>
<path d="M100.774 32.5217C108.495 38.2614 116.247 43.9622 123.488 50.2978" stroke="#C0B648" stroke-width="2" stroke-linecap="round"/>
<path d="M99.7861 36.472C107.695 36.472 115.706 34.8062 123.488 33.5093" stroke="#C0B648" stroke-width="2" stroke-linecap="round"/>
</svg>
