<svg width="14" height="14" viewBox="0 0 14 14" fill="none" xmlns="http://www.w3.org/2000/svg">
<path d="M1.24331 14C0.895183 14 0.600934 13.8799 0.360561 13.6396C0.120187 13.3994 0 13.1053 0 12.7574V3.03075C0 2.68281 0.120187 2.38873 0.360561 2.14848C0.600934 1.90824 0.895183 1.78811 1.24331 1.78811H6.3681C6.53565 1.78811 6.66132 1.84074 6.74509 1.94598C6.82887 2.05135 6.87076 2.16619 6.87076 2.2905C6.87076 2.41481 6.82868 2.52965 6.74451 2.63502C6.66035 2.74027 6.53733 2.79289 6.37545 2.79289H1.24331C1.18376 2.79289 1.12924 2.81769 1.07975 2.86728C1.03013 2.91675 1.00532 2.97124 1.00532 3.03075V12.7574C1.00532 12.8169 1.03013 12.8714 1.07975 12.9208C1.12924 12.9704 1.18376 12.9952 1.24331 12.9952H10.9752C11.0347 12.9952 11.0892 12.9704 11.1387 12.9208C11.1883 12.8714 11.2131 12.8169 11.2131 12.7574V8.0525C11.2131 7.89135 11.2658 7.76891 11.3711 7.68518C11.4765 7.60145 11.5914 7.55958 11.7158 7.55958C11.8402 7.55958 11.9551 7.60145 12.0605 7.68518C12.1658 7.76891 12.2185 7.89451 12.2185 8.06197V12.7574C12.2185 13.1053 12.0983 13.3994 11.8579 13.6396C11.6175 13.8799 11.3233 14 10.9752 14H1.24331ZM4.63992 8.74483V7.56441C4.63992 7.39966 4.6697 7.24102 4.72924 7.0885C4.78866 6.93585 4.87965 6.79834 5.00222 6.67596L11.3947 0.28694C11.5017 0.179893 11.6142 0.105307 11.7322 0.0631841C11.8502 0.0210608 11.9738 0 12.1032 0C12.2343 0 12.3604 0.0210608 12.4814 0.0631841C12.6025 0.105307 12.7138 0.176029 12.8151 0.275347L13.6907 1.13114C13.8027 1.23819 13.8823 1.35554 13.9294 1.4832C13.9765 1.61086 14 1.74026 14 1.87139C14 2.00279 13.9776 2.12999 13.9327 2.25302C13.8879 2.37604 13.8121 2.49056 13.7056 2.59657L7.29086 9.00801C7.16829 9.13038 7.03103 9.2201 6.87907 9.27717C6.72699 9.33411 6.56878 9.36257 6.40445 9.36257H5.26515C5.08922 9.36257 4.94107 9.30371 4.82069 9.18597C4.70018 9.0681 4.63992 8.92105 4.63992 8.74483ZM5.64524 8.3578H6.51232L11.3127 3.5598L10.8889 3.11693L10.4309 2.6785L5.64524 7.46162V8.3578Z" fill="white"/>
</svg>
